<mxfile host="Electron" modified="2024-07-22T07:08:14.121Z" agent="Mozilla/5.0 (Windows NT 10.0; Win64; x64) AppleWebKit/537.36 (KHTML, like Gecko) draw.io/24.6.4 Chrome/124.0.6367.207 Electron/30.0.6 Safari/537.36" etag="77dB_rNEiRa438x-RyE1" version="24.6.4" type="device">
  <diagram id="Bbl4SE8lJal0Up-ziS6j" name="페이지-1">
    <mxGraphModel dx="861" dy="598" grid="0" gridSize="10" guides="1" tooltips="1" connect="1" arrows="1" fold="1" page="1" pageScale="1" pageWidth="827" pageHeight="1169" math="0" shadow="0">
      <root>
        <mxCell id="0" />
        <mxCell id="1" parent="0" />
        <mxCell id="po31jbrVup9QedESrwFg-15" value="" style="rounded=0;whiteSpace=wrap;html=1;" vertex="1" parent="1">
          <mxGeometry x="62.5" y="115" width="552" height="144" as="geometry" />
        </mxCell>
        <mxCell id="po31jbrVup9QedESrwFg-14" value="" style="rounded=0;whiteSpace=wrap;html=1;" vertex="1" parent="1">
          <mxGeometry x="62.5" y="353" width="524.5" height="128" as="geometry" />
        </mxCell>
        <mxCell id="po31jbrVup9QedESrwFg-5" style="edgeStyle=orthogonalEdgeStyle;rounded=0;orthogonalLoop=1;jettySize=auto;html=1;" edge="1" parent="1" source="po31jbrVup9QedESrwFg-1" target="po31jbrVup9QedESrwFg-2">
          <mxGeometry relative="1" as="geometry" />
        </mxCell>
        <mxCell id="po31jbrVup9QedESrwFg-1" value="이미지" style="rounded=0;whiteSpace=wrap;html=1;" vertex="1" parent="1">
          <mxGeometry x="284.5" y="153.5" width="81" height="35" as="geometry" />
        </mxCell>
        <mxCell id="po31jbrVup9QedESrwFg-2" value="컨테이너" style="rounded=0;whiteSpace=wrap;html=1;" vertex="1" parent="1">
          <mxGeometry x="497.5" y="153.5" width="81" height="35" as="geometry" />
        </mxCell>
        <mxCell id="po31jbrVup9QedESrwFg-4" style="edgeStyle=orthogonalEdgeStyle;rounded=0;orthogonalLoop=1;jettySize=auto;html=1;" edge="1" parent="1" source="po31jbrVup9QedESrwFg-3" target="po31jbrVup9QedESrwFg-1">
          <mxGeometry relative="1" as="geometry" />
        </mxCell>
        <mxCell id="po31jbrVup9QedESrwFg-3" value="Dockerfile" style="text;html=1;align=center;verticalAlign=middle;whiteSpace=wrap;rounded=0;" vertex="1" parent="1">
          <mxGeometry x="92.5" y="156" width="60" height="30" as="geometry" />
        </mxCell>
        <mxCell id="po31jbrVup9QedESrwFg-6" value="&lt;i&gt;&lt;font face=&quot;Courier New&quot;&gt;docker build&lt;/font&gt;&lt;/i&gt;" style="text;html=1;align=center;verticalAlign=middle;whiteSpace=wrap;rounded=0;" vertex="1" parent="1">
          <mxGeometry x="173.5" y="140" width="91" height="30" as="geometry" />
        </mxCell>
        <mxCell id="po31jbrVup9QedESrwFg-7" value="docker run" style="text;html=1;align=center;verticalAlign=middle;whiteSpace=wrap;rounded=0;fontStyle=2;fontFamily=Courier New;" vertex="1" parent="1">
          <mxGeometry x="390.5" y="140" width="81" height="30" as="geometry" />
        </mxCell>
        <mxCell id="po31jbrVup9QedESrwFg-8" value="&lt;div&gt;닌텐도 칩&lt;/div&gt;" style="text;html=1;align=center;verticalAlign=middle;whiteSpace=wrap;rounded=0;" vertex="1" parent="1">
          <mxGeometry x="296.5" y="196" width="57" height="24" as="geometry" />
        </mxCell>
        <mxCell id="po31jbrVup9QedESrwFg-9" value="&lt;span style=&quot;font-family: Helvetica; font-variant-ligatures: normal; font-variant-caps: normal; font-weight: 400; letter-spacing: normal; orphans: 2; text-align: center; text-indent: 0px; text-transform: none; widows: 2; word-spacing: 0px; -webkit-text-stroke-width: 0px; white-space: normal; text-decoration-thickness: initial; text-decoration-style: initial; text-decoration-color: initial; float: none; display: inline !important;&quot;&gt;&lt;font style=&quot;font-size: 10px;&quot;&gt;&lt;i style=&quot;&quot;&gt;(앱 실행에 필요한 모든 것을 포함)&lt;/i&gt;&lt;/font&gt;&lt;/span&gt;" style="text;html=1;align=center;verticalAlign=middle;whiteSpace=wrap;rounded=0;fontColor=#999999;" vertex="1" parent="1">
          <mxGeometry x="246" y="218" width="158" height="17" as="geometry" />
        </mxCell>
        <mxCell id="po31jbrVup9QedESrwFg-10" value="&lt;div&gt;미니 컴퓨터&lt;/div&gt;" style="text;html=1;align=center;verticalAlign=middle;whiteSpace=wrap;rounded=0;" vertex="1" parent="1">
          <mxGeometry x="499.5" y="196" width="77" height="24" as="geometry" />
        </mxCell>
        <mxCell id="po31jbrVup9QedESrwFg-11" value="&lt;span style=&quot;font-size: 10px;&quot;&gt;&lt;i&gt;(독립적인 컴퓨터 환경)&lt;/i&gt;&lt;/span&gt;" style="text;html=1;align=center;verticalAlign=middle;whiteSpace=wrap;rounded=0;fontColor=#999999;" vertex="1" parent="1">
          <mxGeometry x="459" y="218" width="158" height="17" as="geometry" />
        </mxCell>
        <mxCell id="po31jbrVup9QedESrwFg-12" value="" style="shape=image;verticalLabelPosition=bottom;labelBackgroundColor=default;verticalAlign=top;aspect=fixed;imageAspect=0;image=data:image/png,iVBORw0KGgoAAAANSUhEUgAABQYAAADKCAYAAAD3sZ3FAAAAAXNSR0IArs4c6QAAIABJREFUeAHsvembFUeWp3n/iKnq6a16rc6UWMQWQECw7xAQBBArAQT7DpLQipSSkJBESgnaEEgIkUhCC1pSmUplKiuzMqu6pqqmc6qreqa7Z3qmu2ee/jjPfO7vNs9rwblYWJjf636XiBvE70OEb+Zmx8xe9+v+83PMSqVS6X+I/v7gX94368HvTZ/7/31/+jynP7WBGBADYkAMiAExIAbEgBgQA2JADIgBMSAGxIAYmJwMoPGh9ZVKpT+INEA0wVHC4B987/65V9XRk7Oj1W/qNzEgBsSAGBADYkAMiAExIAbEgBgQA2JADIiBFAP/6v45byXEQS8Mohj+wR/fN+t06kTtE1BiQAyIATEgBsSAGBADYkAMiAExIAbEgBgQA2JgcjOA9ndHHDTvQe9G+Ad//4/+xdzvT5/739XBk7uD1X/qPzEgBsSAGBADYkAMiAExIAbEgBgQA2JADIiBNANz/zsaYCAOemHwD783fd5fp09QQ6pdxIAYEANiQAyIATEgBsSAGBADYkAMiAExIAbEwL3AwPemzfurUqn0h3fEwdIf/NE/u2/NvVAx1UEXqBgQA2JADIgBMSAGxIAYEANiQAyIATEgBsSAGKjMAFqgCYN/+Mf3zXpMDVa5wdQ+ah8xIAbEgBgQA2JADIgBMSAGxIAYEANiQAyIgXuBAbTAO16DpT/83rQ539wLlVIddHGKATEgBsSAGBADYkAMiAExIAbEgBgQA2JADIiBygx8b/rcz8vC4Penz/t/1WCVG0zto/YRA2JADIgBMSAGxIAYEANiQAyIATEgBsSAGLgnGJg297+ZMPj37okKTReY6kcxIAbEgBgQA2JADIgBMSAGxIAYEANiQAyIATGQh4FSqfT3SqVS6X/Mk1hpBJUYEANiQAyIATEgBsSAGBADYkAMiAExIAbEgBi4NxhAE5QwKE9Dpwv63rig1Y/qRzEgBsSAGBADYkAMiAExIAbEgBgQA2IgLwMSBiUKShQUA2JADIgBMSAGxIAYEANiQAyIATEgBsSAGJiCDJgw+PfzKolKJ9VZDIgBMSAGxIAYEANiQAyIATEgBsSAGBADYkAMTH4GSqXS3yeUWMLgFFSFdQFP/gtYfag+FANiQAyIATEgBsSAGBADYkAMiAExIAZqZUDCoARBuQqLATEgBsSAGBADYkAMiAExIAbEgBgQA2JADExBBkwY/Ae1Kos6T6q0GBADYkAMiAExIAbEgBgQA2JADIgBMSAGxIAYmHwMlEqlf0AosYTBKagK64KdfBes+kx9JgbEgBgQA2JADIgBMSAGxIAYEANiQAw0igEJgxIE5SosBsSAGBADYkAMiAExIAbEgBgQA2JADIgBMTAFGTBh8B82SmlUPlKtxYAYEANiQAyIATEgBsSAGBADYkAMiAExIAbEQOszUCqV/iGhxBIGp6AqrAu09S9Q9ZH6SAyIATEgBsSAGBADYkAMiAExIAbEgBhoFgMSBiUIylVYDIgBMSAGxIAYEANiQAyIATEgBsSAGBADYmAKMmDC4D9qlvKofKVqiwExIAbEgBgQA2JADIgBMSAGxIAYEANiQAyIgdZjoFQq/SNCiSUMTkFVWBdk612Q6hP1iRgQA2JADIgBMSAGxIAYEANiQAyIATEwXgyYMPiPx6tAlSO4xYAYEANiQAyIATEgBsSAGBADYkAMiAExIAbEwMQzUCqV/jEegxIG5TGosQTEgBgQA2JADIgBMSAGxIAYEANiQAyIATEgBqYQAyYM/pFU2olXadUH6gMxIAbEgBgQA2JADIgBMSAGxIAYEANiQAyIgfFioFQq/REegxIGp5AaPF5wqRzdyMSAGBADYkAMiAExIAbEgBgQA2JADIgBMdC6DJgw+E/USa3bSeob9Y0YEANiQAyIATEgBsSAGBADYkAMiAExIAbEQKMZKJVK/wSPQQmD8hjUGAJiQAyIATEgBsSAGBADYkAMiAExIAbEgBgQA1OIAQmDU6izG60qKz99qRADYkAMiAExIAbEgBgQA2JADIgBMSAGxMDkZcCEwX+qTpy8nai+U9+JATEgBsSAGBADYkAMiAExIAbEgBgQA2JADBRloFQq/VNCiSUMynNQrsJiQAyIATEgBsSAGBADYkAMiAExIAbEgBgQA1OIAQmDU6izi6rGSq8vDWJADIgBMSAGxIAYEANiQAyIATEgBsSAGLh3GTBh8J+pk+/dTlbfqm/FgBgQA2JADIgBMSAGxIAYEANiQAyIATEgBmIGSqXSPyOUWMKgPAflKiwGxIAYEANiQAyIATEgBsSAGBADYkAMiAExMIUYkDA4hTo7VoW1rS8FYkAMiAExIAbEgBgQA2JADIgBMSAGxIAYmLoMmDD4zwXB1IVAfa++FwNiQAyIATEgBsSAGBADYkAMiAExIAbEwNRjoFQq/XNCif+FOn/qdb76XH0uBsSAGBADYkAMiAExIAbEgBgQA2JADIiBqcsAmqCEQYUTa/wAMSAGxIAYEANiQAyIATEgBsSAGBADYkAMiIEpxoCEwSnW4foKMHW/Aqjv1fdiQAyIATEgBsSAGBADYkAMiAExIAbEQMiACYP/MtypdUEiBsSAGBADYkAMiAExIAbEgBgQA2JADIgBMSAG7m0GSqXSvySUWMKgPAflLiwGxIAYEANiQAyIATEgBsSAGBADYkAMiAExMIUYMGHwj6UA39sKsPpX/SsGxIAYEANiQAyIATEgBsSAGBADYkAMiAExEDJQKpX+GI9BCYNTSA0OAdC6bghiQAyIATEgBsSAGBADYkAMiAExIAbEgBiYmgxIGJQgKBdhMSAGxIAYEANiQAyIATEgBsSAGBADYkAMiIEpyIAJg/9KyvDUVIbV7+p3MSAGxIAYEANiQAyIATEgBsSAGBADYkAMTE0GSqXSvyKUWMLgFFSFddFPzYte/a5+FwNiQAyIATEgBsSAGBADYkAMiAExIAZgQMKgBEG5CosBMSAGxIAYEANiQAyIATEgBsSAGBADYkAMTEEGTBj83mRRitvaV7qr7992X3zzZ37JdivaHtr5ozdvtKSNrdhuzbSpd/CA+/jLX3t24Cf8O3j80Vx9dPbcj0adZ3l88Om3bsWarlx5NLOOE5n3vIXL3ZU716baQ1+eJpJFlS3+xIAYEANiQAyIATEgBsSAGBAD+RgolUrfI5RYwmCDVWEJg/kAHM8LVcJgc/skZF7CYLqt75+5wHX17nM79512i5dvLAvJ8ztWu8G9J1133wE3bdbC8v5mXx+UtWZTj+vddcwN7X/Q27B+y4Cb/kBlG2bOXuS2DRx0y9durWrrfdPbfLr+3cd9GZST+tsxeMjNWbA8mV+R8mjXwb2nkmWkymUf/bFkRWe57CLlNaKP7n9ggVvb2ecGhk9WtZu6tS9bX7aV8me1LXW9Q0fdomUbRu3PY9t9M+a7+YvXeA66+/b7fOL2o316dx912/sPujWdvW7uwuIf5FZv3OHbOasPqu3HBq6dGbMX5arj9NntbsOWQc90tbwrHadf8rSj0qTveWoXtYsYEANiQAyIATEgBlqfARMGvz9ZOisUH/AcZLsVbQ/tlMdga1wIM+cscstWb/aefXj37Tv8sPvkqxEPwrweg/Qr59rfcy+94T0IJYTNc/IYrM75go61bnDfKYcAM+2BBf7edd/MNrd5+24vmixdtWVc7mffmzbXLV62wQuCq9Zv92Ik+xDmenYe9vZgV9a9dUR8O+kFpaw07CfPFWu7fTlzFqzIzG/m3MVekEKUTOWXt7zUubZvXWef6xk64h6Y25Esw9KxbER5YX6V1uFgS8+w29i10yEcV0qbdWzFum6H8Dq7bVnu82fOWeyFs749x93G7iEvKs6c21HmMiwLcXfG7HY3f/EqL2D27znhhWEEyTBdM9c7Vnb6a4RrqFo51qbwVInjavnoePV7mtpIbSQGxIAYEANiQAyIgcnPQKlU+j4egxIG5TFY9WXrXrvgQw/CvMJg3AYWWixhcPLfDOO+bfQ2AsWWHcNe3EB4svzNW3D74CE3fVZ7eb8db/QSsQ5Pv56dR5IeetiG59q8jI8u982Y54WkPPYiwiHGIT5Wqse8hSt9mUtWbR6Trkh5WWXQrtiLAEZ+WenY34jyKuUfH6vW3nH6eNu8UGErrwi2cMlahyBIv+Q9JywXUREBORS4w+PNWC8i7C5bvcUhXs7N8EBthn3Ks/J1pfZR+4gBMSAGxIAYEANioHUZMGHwvsnSSaEnnjwGWxesycCThEHxM56c3vUWvBsujCfWpu5d4+otuGjpete365ibuzDtwYcXGMezwoRN7EOoqdZ+i1dsGhEZq4SeIlBRZsoDrUh5Wfb4tt970i1csq6qzY0oL8uOeD8iZOe2XXUJbIhfiGCIYXH+qe0H5i3x3pmE9iISp9Lk2bdh66AXB/EkzJO+njSFhN07Ajxhx7V6YNZjq87V74oYEANiQAyIATEgBsTAZGOgVCrdh8eghEF5DDb95a7VLg4Jg7phjxeTeGWlwoXb2ld54Yzx9cZDYEEM7Nt9fNT4hnEbMIYbXn6Ep8bH2M7r4ZZX9CLsE88zBLKUN1/e8lK2sg/xa93mfl+nGXMWJ+sUnltveWFe1dZNhK3mUVkpn0qiauo8xNrB4ZOubdHqqm2ROp995jHI+Hv1iItZ+cf7GQORMTjpm/hYvE04NWHVWfzG6bWt3wExIAbEgBgQA2JADIiBqc5ASwqD02YucMcePOve/+in7vZPf+s+/9nv3I1Pfub3tXesyTUr8X0z2lz/rkPurWsfl2eiJR9CPs8+96pbsDjfS5Hlc+ntD9ytL35VnpGW2W3Z19037EgTgxR6NmaNMTiw56i79eVInleu33aLowHlLU/y79q+y7365o0xdXn2xTeq1oXx8Kg39d9/9Iy3tbN7p8/v05/8xteJdqa9Tz70dMMFirAtzjxx3jHW32NPvew+uP0LX/ZnX//WvfPjL9zQvhPJtqQdrA7MAkz4rrVNuAzLyWrzMP1kFgYthNm8Zlev73avvHHdWX+yZJv9YZ1T623tK9zZZ18t9wcsvHvzSze456gfw9NmAU+1e9jmNkMzy7yh1WG/Es5t1z7XO7yG1z7HYvvntC11r1/50HP0409+7tZ19oxJwzlcQzYeJLztP/JwMl2cf6O2U+HC5i3IxAd5vb3qscdCTvFQpOysvCoJgxZm291/wE2rMkFJXtHLwogRrGKbipQXn2vbCK4Ir4zhV03EakR5Vm6eJaHTPmy7ikdlVl4mqm7esccxiUhWunC/ea4yiUglDsJzwvVZ85e6bf0HHWVSfnisGetMzEJZeULXKd+HERccb7EZditPvWCIATEgBsSAGBADYkAMTBYGTBi8v1UMRjS68No1LwiEQgPriATPvfymu3rjCy8EmCgS204eL7xyJZmH5Xnzs2/d9v59FV9qEEwQ4yjXzouXHDOxLbQjFExSIlXf0KFcomCeutz6/DvXs/NAZl1i8eXIqSfKAlJcn6w2DetWdD1six+88Jp75fXryfakLRFtU0JrWIeUQIVNYTmpNo/tvheEwfc++MrtPfSQg4G4L9lGYFu7cUcmG6vWb3PkkToXAe3xH1zwIh/HU+0etnmYRy3C4IOPnat47WexQf2oJ+UjEnLNxH09tPe4+/QnIxPNPH3uYpKx+JxatxFoEDIqzXRa6VhqnL1abQnPw9uKceWqjbtmoakpOwizJeR39Ya0ABuWl1f0Mo838g7PZ71IefG5tk348ODe07nDiPPWz/KvdWmc1DNOn4mqqb6qZNey1V0jnqo7j7ilq7e4WfOWJEU+hEOEVTxN8cBDnGMG6zyee1Y+eW/t2Vd4pmi7RpghmfPJx/LMWpr4XWS8xay8tF8P8mJADIgBMSAGxIAYEANThYFSqXQ/ocQtIww++cwPy0LctZtfOV7oEYVYso14hEcTIkCWiHXmyfPlPPAiQggjj01bB7zwYOe///E3DmEk1dneE+nqR2XB5L0Pv3ZHTz/p05MX3n4X37rhbUlNXBEKJrFIFYqCiJzL16THhuKFDJGUulLvt69/Vm4PxBC87z68/Ut/vJIAFIpqL7561X342S+9KPnoUy950cjq8+a7txyei9ieapNa94Vt8enXf+rbjLK29e/1/UL/0E/UEzHq0InHxpQf1iElUGFbWE7c5inb7wVhEM9VRG68PQ+deNy3J+361ruflNnFqzRVfwQ087aDr1SfkD99Qt+k2h0Rt2PFBl8ufWReebUIg1yPzBINo1yrXJsPP/F82UsWD9P1nb3JunBtYif14PoP67t0VadvH+pw5f3bDq/j8Hij12feCcU1YaPIslkTJhQZo6196Xo/czLhm3HbjIwZeCpzYhJLn1f0wusQ78PMMGI/RmH18qzceGkh3FnjF8bp89YvPq+W7bwelZXyNlE1NTZjpfM4hrffomUbfNv3DB31QmHMav/uE45jndv2OMRHQoireV2G5dp4hoQc1zLJSZhXnnUTtcfDAzePPUqjlwkxIAbEgBgQA2JADIiBycCACYPTWsFYXvotvBTBLH6BZ5sXe17w+UsJg8tWb3YIDBxPiWUIGXgeISCQJks0CcVFPNwQClNtRLgyQl98LEukwrPPvLsqiYLkN3zwwbLYkeUtReikiWpZdQlFtc++/lMfJpoSI2mbTV0DbnZGXeM65t0O24I2xwsz9uoK60EYa9z3YR1SAhW2hOVMFWEwi/OO5Ru8kM5xPAIXLV07hlHjizQwHvfJxq5+LyJznL+sdg85IA1paxEGuSZTnJ8680z5ej155pkx9aB82DVRkvD8HQMj3sChuB7uD21u9Lp5WRGSi5Cyefuw9x5kMg/28Uc4JyGkvUNHvTeW7W/WrMR4eDFGG+VWq6/N/orAGaYlzNZPlFEgjLjaOG/MfDwwfMplhRHnLS+0M1y3MRzzhD4XqV9YRq3reT0qs/K3MOIsUTXrvPHcT/8z3h/j/o1HueNd3njUSWXoZUIMiAExIAbEgBgQA2Kg2QyUSqVpeAy2hDDISz+iAgLBiYefSr5I7Dv8kEPcIl1KGMTbzEQ/xrFLNSAiiYVPpkQoRCn2UwYiI2JjKp9K+1IiVSgKUn6WtyL5Imhcunwzs55h2edefsunu3HrZ27JirGDs4eiGuGUeF+G5zd7PWwLxJmtPbuT5ZuoxPh4Q8OjbQzrkCVQheVMJWEwSyx7+vmLnguE6C3bh8a0+csX3xk5XqFPjC2uhax2D/mxPqxFGMwSMLlO7IMBNoflhevhhwO8a+GB+0GWJ2F4brPWLdRzx87DXiSkHASo9VsGvFhYz6QTeW0uC159+5PhomE+lTz4LKw3j82IXnm8HwlJZqKTSmHEecoL62Dr5i2IF1yeMfiK1M/KqHWJbYS71jNzrrGVElVrtauR5413WO94l9fItlJeetgXA2JADIgBMSAGxIAYmEgGWkoYNKGC8NgNW/qSAkAoEqSEQcsjSwyxxq6UjlDMj7/8Ey+aIIzYOUWWsUjFeIaEfCKwVBMFKSesJwJPpbIJZSZfbMb2OG0oqqXaLE7f6O2wLfCSnL941RgbKRMx0CbPIEw6tCOsQ5ZAFZYzVYRBQn0JiQ7bytbvcjE2TSiOE3ac5SU6fOh0WYjPancrj2U9wmBWnxXpVwvT5+PAhUvXymMPprxUQ7ubsY4gt7F7yAuAoeeczZqaJYg12pYiIauVPPhGwmxPOgSpSjbmFb1MhKSNaKs4z7zlxefZNl6SiJOEEW/YOjgmf0tny3rLs3zyLI2BkIs854VpEFXj0F+8B7+fmAwrPG+81i2st+j4h7Xah9ct19SaTb2Fwp1rLU/njb1m1SZqEzEgBsSAGBADYkAMTE4GTBicPtEdiIecjXeW5TmEjaFIEItchBNevONlV81jCeEJMQ3vQ8SPsP4mqHA8NX5gmDZrPbTz+odfl8N9yZMx1LA161z29+486MdbI33evyyRKBTVKnlcVbKnnmNhW2SJP+QfiqGxnWEdsgSqvOVYXe6FMQYrcW4cp7gI27NSn4RtlNXu1p4s6xEGs/Iv2q/hMABcO6khBUKbm7VuwkjoLcj4bOs294+btyB1GxG8qo/TZ7alBMu8YwZSXl7Ra0SEPJmcyKJIean+I4SbdsfbEK+8asJgveWlbKi0z8+cu+dE1YlgsvIwUTVPGPGGrsExAmIsKNayjeD6wLyxE8aYzSOh0qfc/EWrK/7WWfp6l4jLqzfu8CHztdTHziG0nRD0eu3R+ZPzoVj9pn4TA2JADIgBMSAGpiIDpVJpOqHEEy4Mhi//seAXdkyldJWOhXmwbqIJwkEs/tkxJkJAoIvPzbMd2mLCnoVAE9rIZAmV8jEb7Nw8y5QARBmhCJQlvlSypd5jYVtUEqFCO+N04bGsOuQtx+oTil4xA5am2rKoEFYtv7zH85RrDKW4CL1is9oTW/K0e2hzHrvC9HnyL9qvs+Z1+IlUuGaYaKjatRba06h1RIpUuLCJZowtyMQMjSqvUj42ZuCMOYsrlkcoLaIg4ko8wUQRr8O8opfZlQojLlJeXHfG3tvSM+y6evb68RwRBquFEtdTXlx+te28HpWV8qnk2VnpvErH6h3zMM57zoJlfgxNE9xqXa7eWH0G7LhsbeuBXgyIATEgBsSAGBADYkAM5GdAwmBCGGSWXESFRgqDzPa7rXe44sQoIbgm6mDH6UefLc/6ipCS9cdYiPEEEuSZR3wJy270el5hJ7RTwmDliziPAGcMTTVhkAmBqLOJ6amJVRrNuAlLtYgfeWfMrcXm+2fOHxHJevc5xmDLygMhEEEwS7DMKxqZ6MX4eaxnlVdtluS85cX5M/ELgqz30pzb4euMMLh98JCrNLFLreXF5efZNnG43jBi77E3N9tjL48tlma8PSYRzvGcRbyFUbNDy8r3fbWP2kcMiAExIAbEgBgQA2KgGQyYMDijGZkXyXOiQolTE12YoIKwwHqReljaUAxjXL3Fy9b7fMKZYCuNexaGEmdNLmFlVVuGglsl77Bq+dR6PGwLQr2zwqgVSpz/JlevMBgyEYuwYT+HXpV52MljV5h/aEdW/iE/lWwl36WrOt37H/3Ui4KIgzbxCDMbh+U2en3hknVu577TNYVs+gkoHsgW7eqx9f4HFuQKpUWs6t11zDFzclxeEdHIRC+8BuN8wu35i9f4kE/GAQz3s16kvPBcREFCh/t2H/czPdsxhMJKE6HUWp7lX3TpPSrrmKnXwoizxmYsag/pTdiudaKXomWWvVM3yBuwaNspff7fSbWV2koMiAExIAbEgBgQA/kYKJVKMwglnnBhkA6zCUHuxclHDEhEsedeesMLF0yQwHhodixchiLZS5fezRTTwnOy1vOIL1nnNmJ/KOw0YvKRrMlY8Jj88Sc/921bTUCiXqHoVasAXFQIa0R7kkeeck3gTnkMhpOPXHn/tpu3cHmSw/GcfKReYRBvWbwDEfSZ/Xpwz9FR20xM0qj2j/PBG4/JD/ibv3i16999wnvfzV24YmT/nEVu49adXjhcs6mnnJb0hL7G+TVq20SkSmPs4dm3eftu71mYssVEozwebqTpzyF65QkjzlOetROi4NpNvV4UJMzW9rNEfES0TYVIc7xI/cJ8a1lvxMy5lUTVlE30L2MRMilH6jj7ECsHhqtPLJN1ftH99IkvL+qrovkofb4HPbWT2kkMiAExIAbEgBgQA2KgEgMtJQyeePgph1jGH+spw/cdfqg8S2pqLMJDJx7z5yMOPPbUy8k8QlEkNdFJe8ca9+7NL73A8P7H3zgEp5QtlfaFYlgsUnUs3+Cu3fyqLGDsGNg3Jn88KC/dmUjlw89+6TZ29Y9JU6n88FgrCYMINlt7difrYmJXyouTmYwRFenXLK/DcFbjuM3D9rD1LduHHLNXk2c8C7Klqba0SWyqzYJdLZ+ix62tap18BIEawdlEtKw+YVZu0vCXJdyFtuPdStqsGbLDtKznYbPStRTmd/zBp/y9gfvHk8/80DMWehAigHJth+c0et0m8CCkOPS+wpOO0M+sUN1G22H5WShx1hh72LtibbfbMXjIzcwIS807ZmBe0ascRty1c8xYhtidtzyr4/TZ7V7YpH1TMyZzL6V+CJYItXaeLYuWZ+fVsrQJaSiz6PkWcltJVE3lSZsgwjEJTer496e3uY1bh7x4WCn8O31u8QcswojxduzuP+AQrhuVr/Ip3hdqM7WZGBADYkAMiAExIAbEAAyYMDizFYBY39nrPrj9Cy8sIALFL/Fs83JvQkVKGETEQ8wjTWo2UgSRs8+9WhYPn33xjeSLSTizKV5Ic9qWJtOt6+xxm7YOjDlWTcwIx0HLEizCsGNmbI7bw/qMOnX3DbszT7wwxg7S5BFfLK9mLMO2oF9SIdS0o3n7IcrGdaWONuN0SiiN2cgjDC5ZsdHduPUzzwrtmxqfsVp7mEcdYlSzw1VDW+oVBskr5Cs1Dh9iNG1t11seYTAUZ08/+lySx7AeedgM+cnq164du8si75vv3hp1vQ7tPe4+/cnImIN5ZgQP7Su6bqG04cy+iG9rO/u8tyBLtovmW0/61Rt6/KQiqUk+EAV7dh5xcxakPUYRihgv0Ic7VxijEPvyil4LOtb6MGLCr+N6FSkPL0HErr49x73IxEzEcX62vXTVFu81yNiD4aQvRcqzvOpZEqqdx6PSysCbEQ9TwrxhBxGU8RKLhBHT/40cj9Bsq3UJh9iDXbXmofP0ACsGxIAYEANiQAyIATEgBhrHQKlUmkko8QOt0qh4+iCyIEbgVcdLPeIBS7Y5xkyjHE8Jg9QjFPUQm5hMhDwQ8C68dq18PgIiIbupuiMEvn71o7IoQlq8GElPXoQlEvqMd1sqDLWamBELlE+fuzgmXDgMjaS+eIfhobZ24w5vA15ehNWaoJYlmuQRX1Jt0Kh9YVvQd/wh3jAzLrbUP8yAAAAgAElEQVTRP1YHxoTD6zNVtnmU0hb0x/6jj/jzjQ0mizEPwKy2iPNFGCY/uDr/ytvltsWuhUvWJu0I80CQNO9SvCHxWuNc+5udISiHedSy3ghhEL4QRK3+cZ/c/Oxb99Hn35VFtTzCYLX2gIWwvrQTXGNDVv4hP6l+DUVhOEJkDssIr7U8M4KH5xZZD70Fw7BV8xZEDGG9SJ6NSGvl4xU2bdZCL0zOmr/Ue9l19x1wlQQ1EzrzhPW2L1nnBodP+lDqLLsZ8xDvRWYNToUt5y3PZrzFEw5xs5qnG8c3do2EciMO2kQkecvLqk/R/bRj7+6jPnzZzkXgxKtx1rwlrn3Zerems9dtGzjo29LPEr1hR7mPioYRWyg5ocR46lmZE7lEzB0YPuXikO+JtElltwYb6gf1gxgQA2JADIgBMSAGJoYBNMGWEgYRKxDvTBxEMAj/8Gy69PYHfl+WMEgeL7xyJTMP8kP02N4/NoQ3BBHBgbKybDG7ahEGKScUNPBoQuAKy2edujx/4XJZzLQyU0vaJj6f7TziS+q8Ru0LhZ23rn3sLl/7dFSfWl1oZ7w5EXJSZZPP29c/S55rgg/CEfmlBKRUngi91z/6Opln3jzofwRiq0e4TLGRsqPovkYIg5RJ/QmnD222dcYmPP7Q01WFu9h2RHNEUssnXMbiXx42Q37iPskr+oXXWko8jOtQy7aJTGG48ER7C1o9EAK39uxzg3tP+T+8zhYv2+AQpSxNalkkzJZQ5G39BypOwDK496Tb1L3Le77VUx6edIhsjNGYyie1j1BnwrvxHrR6F6lfKs+i+xD/tvUfHDVRDeJmz9BRt73/oNuwZdAtXb3FhzwzKUqcv4URz6jgHRmeg/iGCJcdRtyYBw/GDIStWmblrnQOeaYmqBnv8sI21XpjmFE7qh3FgBgQA2JADIgBMdA6DLScMAgc02YucMcePOtnF8W7DMGIsGD2cczGPcsSBskDwYBwXYQoBA7ECfLBOwnxacHi1WNeulJgWj4IhLe+uCt2kCf7mOAAm+JzK4kZYVrGFzQRJRX6bGk7u3d6wZRQaxMqEcN+/PE3XjhkvLyUHZyfR3yxcpqxjNsCb8zHnn6pHDZOPd758RduaN+JTFHQ7GprX+Hra23GuW+9+4nr2r7L9wHiKH0dC0h2fmoJC4SYGicmZBXJg/Kv3vjcz4Jr57NsdWGQ9kj1B3WhTiE7T9wZty/VhvE+zqVf6J+wPRotDO4/8nC5jFQ4dGhXeK1lhe+H6YushwJg6C1I2CpC4UR5CxapQ5zWwmwJJa7mkRefW8v2vV5eLW0SnmNjJeL5mDccHS9OZmSWd17rPHSFfap19YsYEANiQAyIATEgBsRAKzBgwuCsVjBGNtybF0UsDKqfJ08/N2LmZvX35OnvsK9mzl3sCLvtyJy0orH1utfLC9u2lnW8DZk9Oms8yFSeeHHiHVrJKy/Psa6evY4w8FQZ2tfY60DtqfYUA2JADIgBMSAGxIAYGG8GSqXSLEKJJQxOF3zNgk/C4ORly8Z1zDvLcLMYUr6TlyH1nfpODIgBMSAGxIAYEANiQAyIATHQugxIGJQg2HQvEAmDrXsDYIIVxrFM3aQZl4/ZwQkFrhS2nzpX+1q3z9U36hsxIAbEgBgQA2JADIgBMSAGxIAYMAZMGJxtO7QUHI1mQMJg6zJlE6e8+uYNN3zodHk25X2HH/KzgCMKMk5g1kzRjWZF+bUuK+ob9Y0YEANiQAyIATEgBsSAGBADYuDeY6BUKs0mlFjCoDwHk15jjbjoJQy27o0DYTCcHCReZ/KfJ5/5YdVJYRrBifJoXU7UN+obMSAGxIAYEANiQAyIATEgBsTAvcmAhEEJgk0TBO2mIWGwdW8eS1Zs9MLfuze/HDUrs826bbM9W19q2bp9qb5R34gBMSAGxIAYEANiQAyIATEgBsRAUQZMGJxT9ESlF2xiQAyIATEgBsSAGBADYkAMiAExIAbEgBgQA2Jg8jJQKpXmEEosYVCeg033HNSNYvLeKNR36jsxIAbEgBgQA2JADIgBMSAGxIAYEAP3HgMSBiUIShAUA2JADIgBMSAGxIAYEANiQAyIATEgBsSAGJiCDEgYnIKdLoX/3lP41afqUzEgBsSAGBADYkAMiAExIAbEgBgQA2KgKAMmDM4teqLSCzYxIAbEgBgQA2JADIgBMSAGxIAYEANiQAyIATEweRkolUpzGWNQwqA8B+UyLAbEgBgQA2JADIgBMSAGxIAYEANiQAyIATEwhRiQMDiFOlsK/uRV8NV36jsxIAbEgBgQA2JADIgBMSAGxIAYEANioNEMmDA4r9EZKz/BKgbEgBgQA2JADIgBMSAGxIAYEANiQAyIATEgBlqXgVKpNI9QYgmD8hyUq7AYEANiQAyIATEgBsSAGBADYkAMiAExIAbEwBRiwITBNqm3raveqm/UN2JgcjHQO3jAffzlr90X3/zZqL+z536kH9gp9AOr6zb7um1rX+muvn971PXB9cI+jqntsttObaO2EQNiQAyIATEgBsSAGGgkA6VSqQ2PwUkjDIYvE638AhHa+aM3b+glR2KAGJhCDEgY1A91I3+o78W8wt/IUEBv5d/1ov2wbNEi969fH3b/27VD7sOn+vQbMIV+A4qyovT5fzPmLVzurtz5qPDBp9+6FWu6dG3p2hIDYkAMiAExUCcDEgbrbMCsh7nwpUfCYP4Hvqz21H614WRiIBQGTz/6rH9x4eWF+0KlekyftdC9+uaNMV5UoXDC+uc/+517/6Ofuu39+5L5dSzf4K5/9LU7/8qV5PHQhvtmtLlHzp53n3w11sPRyiWvjhUbynntO/yQ++jz79y23uHyvl37T7hbX/7K7dp3srwvLCe1vmDxavf8hcv+PMr69Ce/ca+8cd2tXt9dMY8i9cOeW59/5wZ2Ha6YZ8o+20d57334tbfV9o3XcjzaiLrQp7d/+tuq7BkTqeVnX//Wt9HMOYuqtjXcwRTXBX+vX/nQly1hcKrf6+e6gc4V7otzg+73l/d7URVh9a/f3O9unu1znauWVmULntvaFri3Ht7u/vLNvT6Pf/fOQffnr+115w5udrNmz8+VR73X+LSZC9yBo4+4qze+8Pc2rhnu3R/c/oW/N+cRtLhOhvadcO/8+AvH9WX3ybeufey6tu8al3rU2w6NPj98vpYwmL5f3D9zgevq3ed27jvtFi/fWOZkfsdqN7j3pOvuO+CmzVpY3t/oPnpgXofr23XMDe1/sOLf4N5TbmPXToe9KRvmL17jeoeOujkLliWPh+dMn93uNnXv8vVLlUtbrN64o5zPfTPm+7K37Bh2988cuSd8b9pct2ZTr2+7+x9I2xSWyTrnzJm/zG3evscNDJ/09e3dfdQtXbW5XFZ8jm23L1mXq373zZjn1m3ud109e8u2Wh5FlkXas0i+edPSj7TNgo61ybaZObfD9QwdccsCsd/6ZFv/wZqYpR96dh5xM+cuTpYZ2563T+Lzat2eNX+p29o3cq2muGUf7MLXtAwml6/pKlTHWm3NOo8+WrG2u9B1U9Tm6Q8sdNv6D4y5n8TXNTbOXbjC9e05Poqz+2a2uc5tu1zntj3u+zPacrGQVd97eb8Jg/MnSyXDB4JWfoEI7ZQwmH5wmSzMyU71X1EGQmHw4PFHG/4DtHjZev+y+e7NL117x5ox+fPCyQtTnnuP2fr0uYuOl9A8daVOhEpzrqVnHy+teeu7duMOL27i+bGxq9+XjQB34dI1Lzr27Lybt5VhyyL1K2qXlREui5QXnlfv+ni1Ub12cj4iyAuvXPHc5RE84jJhFX5a+Xc9trnatjwGi/12zHigzb33WK9DxEMMTP1x7KWjXW7azOy8t69f7v7itRFBMJXHdz/c5VYsyfeSWK2Ps45zX7587VPPNFyn/vgQcvT0k5n3XQR2rinExNT5CIWPPfVy5vlZtk32/fIYzGbf+hbhZXDfKdfdt78sJvBivHn7bi8yLF21pfzbbeeM93JE8Olx/XtOuLkLlo+xBzFsY/eQ2z54yE2f1T7meGgvgsmWnmG3eccel1fQm922zPXvPu5WrLv7IXLGnMVemEKEw76wjNQ6giZpd+w87NqXrnf3TW/zf4hRA8OnXKV2LlK/B+aOCK2rN/RUtSllJ/uKlJeVRz37aU/aCuGP+qTyWuLb7aSbt/DuR/SifRLmCxdcA4i/8B8eS62PdxvBIAL6qvXbPDcpm2g3jmddJ1ZH2EfsTuXR7H30J/2a97ppts3rOvvGcMY9hjZctnri733N7o968i+VSvMJJZYw2GDPQQmD1R9c6gFX56p9W5kBE9t4mcsrlBWtD0JKlrdEESGrFuGMc+oRBue0LXVvvnvLh4PFwiYvw6+8ft2LhktXdSYfcppdv7gvipQXn1vr9ni2Ua02hufRb3ioZjEZpk2tSxjUPf3Fw11lUfDPLg27M0MbvYCHiHd27yb3by7v82Lh31496B7aedeDOeSpfUG7++7Cbp/u31496C6e7HZrlnW4jSuXuvefuCs6fvHcYNM8B2fMbncXXrtWFvOu3fzKe+RyH0Hsf+b8a2UPQu6j/bsOJe9zp848UxYF8Vge2nvce9ceOfWEu/nZtz5/xMHhgw8mzw/bRetT5/pCAEEIyfIWzCO0jQcvCB54C+4YPOS4ZuIyy2JDZ/VhGPCKxFtvXpWojLAMBIJYbFm4ZJ33OMSzLkybWkfcQIzBS5H1MI0JTN39B9y0B9KemYXqt2KTFxqL1C+0h/Ui5cXnNmLbysdrMyW6ImrRnni6hh6kRfokthOxdmD4hMNTNj6W2jYbEZZSxxu9D6G3klBKecZS1nWLiAr7iKqNti9PfvQlfYrAidCZ55xm2sxHBNqKe0vIGR8AsHFWW76ogzz1uBfTSBhssCBokEgYnDoPYdbnWqrPjQEJg5VZOPHwUz50mRdda7NwiQfhh5/90mVN1lJEqKtF+AxtYb1IefG5tW6PZxthIwLtxcs36wonRqR4+eI7Lk8ocdwuEgYrXzNxe91r20sWLXJ/+qOR8RgRBRHz4joSYvz7t0fCi3/24pCbN3f0yzjpnzu42YuC5ln4/emh189cd+WRHWVx8dTA+jFlxGXWsr21Z3d5eATCiOOPH+R5/MGn3Gdf/6kX9xg+IvbWXrZ6s3v/42/88Ruf/MwLiqEtXTt2+yES+Ph0L3nZhnXUem33hLvegnfDhfFkQ8BCLKzkxTaebV7NEwyxj7DnaiIdwgkhgpVEuLheJp6GIpQJlVkCTJgH7bl+y4D3UoxFQUuHUEM4Y1YYdDPrZzaEy7zlhec0at3EIzwrZ85Je2unPDiL9ElsK6HyhMzDPf0VH09tj2cbIRjDLF6xMJyyh33VxMpV67dPqODlw3Z3Hy90X8ll84yR0N+s8Op4Px66be2rfPgw9w0EZWtTG1phIr0qzZZWX0oYlDBYvnBaHVbZl/3DobZprbaRMJjdH3jCXX7vE//HeopdXpJfuvSufzHmBTlOU0Som4zC4Hi3Ee1LOyFUHDz2yJj2jtu/GdsSBrOvmWa0d6vl2bvhruj3ziPpcLlZs+a7L8/t9MLeX7y+d0w48Py2he4XF3b544iMiI1xPdcu73CcS4jxp88MuOk5wsviPKpt2z0H0e7ME+fH2MD5S1ZsdDdu/cwLf4iH8xevGpWODwMWQky4cKrMZ198w59PSPLQcPojS+o87bt3r7WscGFemPEqyvLOmwgmTIRJjTdXzUsqtBfhZCQcc3vyOgnT2npKhCoLlVW8xRCrGE/Ne3rNW5JZJmPVxR6JVr7VL4+YiYdT0fpZOba08vKInnZOI5dzF670bbFmY29me6U8OPP2SWwrfbRy3TY/fuMDFfooPG+82wjBGwGL6yC0I1636yQlkDc7JDe2Jd5mTEjEXkS6rX37M0Xf8Lxm2ky/W7g67Fi5FkY8UV6VZsdkWJowuKCVjGWsomMPnvWhZAyGzsMRX0zZx5dXvo5W+0rKiyXhGQzQTKgG6f2gz59+684+96pjQPc8dbZ8Lr39gbv1xa98PuRFnuzr7hse86WXfPN4DA7sOVr+qnzl+m3HuGEpm7CBQab5qhzXhQfDanWxl2jqv//oGV9GZ/dOnx8PlNSHdmYyg5MPPZ106U/ZVXSfPSz/+JOfO172bWBuxkmzQe+xhz7b1r93VFtYHbA1y4uoWpuHeWCLcQZbtE3IGceK1m+ypX/5WJd/OTLPi5VLFrsbT/S6v7ky4pHBkm32Z9WNcZ661y53Vx/Z4X53cdgRusULlw30/vrpbY5xtlLn24sg3iGMCfXJMwP+vN9fPuAIKWO8qSM9a8svcbzMsZ3Ky/YRRsb4Uwwyb+NUMYD9xz/od1vW5HNxt7zqWTZCGJzdttR7qvUNHXInzzzjPbG4VrgHXP/wa38f5MWSF8zYVmMdsSU+Fm/bdckyPpa1TVrsoJ6WJm8+W7YPeU+XrOvY8jt04jE/2P7wodPlMuxYs+tn5diySHl2Tj3L8W4jbE31aT11KHruZBUGmciCCS3snsN9B3FqT9dqt6Jj8aSYldh+CxDdEN92bVnl60Bd7F7e7Ek77PeA3w/syeKH2Z1J81dv7nNbVo++p4d5mLiI8HftsR7/m0KebCMIkkdKXIzLxfv1By9c8vcinl2yJnwKz7N7Ic8rrIfHbD18Xonv4zzz2SRUTJzE/YDzdgzs82PLMt4U24iB9gz39PMXk+VYebUuuU9TD/NKZGIoJoiyclnmmTCK8jds7hv13GnnLl+zxf+W8JsS/66Y3WF7YY/95R26wO7h1idFn//4WGMTJMHBus60eE3fPffSiGCLB/X+Iw83pV+sXeKlTS4SCkDmLcjL+3iOr4UAMGP2Ii96L16xyRGeyXhv/btP+HBRJlwIx0AM62JeUnnG1EuNSxfmlVr3ItTu46NCHysJMGEeiAx4AlYTdCoJg82uX2gv60XKi8+td9tCO+GPMR3xMIvzTHlwkiZvn8T5LVq63otuCLN4jiEYMeEEnqWxp1m8nYe5uLxatlPj4MX5mFiZJSBbSC7XV3xus7e5vhnXs2fnYe89y0RCCNhzF44dLzS0pZk2MyQBHz/iMOJcHopNchQL6z4Z1kul0gLGGGwZYZCHMMZmQaSxH35bsu+5l9/0D0bssweVuKHJo9KAzZzL+CzVHvDa2lf4h5iULaFNJraFdoQPMamXc172mcGTfCqJgnnqwoNjnoH6KYuHVMansYc6q4cts9o0rFut6/awzIMc4+xk9TO2xKJB+FAXHzN7qrV5mMeDj53LLJ/+RjzmAc/yvheX9jLIQOwHtq/1L1q8LMV/v7u4JxnWRZtYHvE54TYC4+mdiN5hSNc8Zy9x/8vbB9z/9PrI2FF2HmNIvfnQdvc/v3V3VkqO+ZfBDIHvSO+6cpiZ5RMuecFFcIztaEbf1ioMPvb0S+X7Htco9ylEQMbce+Tsi37GX2Zy5cWQ64gXldTYPMZ66t4T19euy6wX2Dg926SNX+Dy5sP9B8+0lOAXlmXiWOqFt9n1C+1gvUh58bm1bI93G2Ej/SePwWKeRHioffXC4Jh7JvcdPpKcO7RlUgmDfCR6Yriz/IEnvH+y/vX5IUeda2G62jnrli1xf/nGyO+AiXrxOaGo96c/2uMWt48el4zQYLP5kd0jH0wsX37nFs4fsf2Hx7f6dP/2ygG3q2u0p15c5sDuI+7Tn9ydsT1rwqfwvFCwy/IYXLR0rXvvg6/8/f6tdz9xfAiyPPAexIuQZyHSkJZj515+y+/jQxHb/nfg9i/8vqzfAsuz1qUJg9ix99BD5fBle2a0ZSrcOSyT2Zn5zbD04ZJzH//BBX8s/l2xPMLnu/DcWoTBWp//eG7FVsqnvXk+N/tsyfAYxkuRCb3s/CJLG5MtFjbybjfaeyacNZSQZWaf7Rk66mcBRQRBvMBTj7A+BB9C/8Jwv7DuI8erjxlobZAlMIZ52rqFFYYTUpgAEwqqlj5cmsgahiCHx8P1SmOa0RbUv9qYgbXUL7TB1vO2p6Vv1BLBj5BrvMoWLd/ohcGtPfvGjMmY8uDM2yexrbRp3+7jbsOWQS9a4ZXXsbJz1Hhz8Tls5+2T1LlF95lYmjeMOEusZD9iHMJvURvqSc81tHHrTt+veGQivNK/tLUPF69gT1Gb+biwesMOt2PnEYf4yP2Ncrb27nNti0b/fvthFKIw4mZ6KNbThq16bssJg08+88OyKMiAzTbYMku2EW3MuyxLxDrz5PlyHnzZ4yWLF7tNWwe8GGTnM36LfXmNO8h/Hbz6UfkhhoGfmT2O9OSFt9/Ft254W1Iv1OFDTPxyHoqCPPzxtTQun+1wAGvq/fb1z8rtwQMKD5wf3v6lt7HSQ5m91PIw8+KrV/3YXYiSjz71khforD5+MoDrt723Y8qeeveZcICQef6Vt30fhYNy07aEz9BnsfgX1iE+ZnZVanPShHnQ95989WvfHnBB2Q8/8Xz5wfWD279w6zuzXd6tzMm8NFGPMZuYwfE3r+5xx/vXew+/beuWl0O2eNG6eOrurG1hncmDF+CfvLDTPbprkxcQ8RBksHgGjscbkPMpg/GhwnNNGOT4z1/c5b0/SGPnhPuP9q4ti4Q/2D82tPR437ryy+y/fn3YPTG8yduALYd2rHE/fXEk/AxbTw+kB60Pbat3vVZhMG+5DErPfeyhx5/3Hrbhi1K4Ht97UvnbdZm6j6XSs4+08Qtc3ny4fkMvmKwyLNQuVQe7llPH4vzy2hWfF24XKS88r9b18W4j7Fy6cpOfRbXSh7CQrax1vGR27z856lrP0w70JXlm/a7nyWM80yBSMYMu9yk+Onx+bsBx3+Seg0DFfezv3jlQ9lzG02087StSlv0W8EGGP2ynDtSFOlE36khdqTN1L5J/nrTkeevpfl8G5VcbYzD1m2T1CAU/hD+2ER0RCbElFBBZr2Sf3T+M9zxCFJEtCIie5ypjDHK98dwT2mD3G843wY/nQdbZh0BI+lBATIUjh3nWus69iDK53/OhisiSQyce989TRHYganKcPyJYUuXYmLGk4YMXk6/wDMufTcTCb4KVE3qiW358qOWjGG3Dn3nl5ekP8gjbtJ7nP94DuMfRb7xrmH0smSyL9qEeV96/nRxbMkxf7/rM2Yt8OGteITBMlxXiWq9Nec7HYwzPsfWb+/0LPyJiaJutZ3lJhWXUEmZrYYWh96R51FWbdAKPTAQ9hLbQjngdoWTj1vSMygheecdErKV+sS1FyovPrWfbxmEMvQQRS1PjXNIX1u/xMksUS9lmoiBsUb6FuiIk4UWYOod9491GucOIKwjINkYhLGF/Vt0avZ8PAJSJABiGacM8Ifb0b9a4jkVsJr+lq7d479y1nX0+TJl9/FEuAjPDIzBMAnVkP2HEMT+2PRFelY1u+/HIr6WEQYQYBBl+VHnIiQdsZpsfW477NO+PFbGqDdjMwwXeYPbyk/UgE4qLeOtkjYVFuDJCX9xZWSIVnn32AFRJFCQ/ZpqzB5AsDzbCGRDSaI+suoQPRHiE8MCaEiNpm01dA6O+XMf1qmfbHrBpe0QNHuxSX1xpa8S6sKywDo0QBrEh1abhLID2VT60415at5coXvZSXoHh7I6ht0XYBoQRt7Vlh13zcmdC382zvBjf9RoMhcHw5eyNB7f5l8Pw5Y7zPrzz0hi/YC9pX+RFTeqR5dFCWDLlk4Ywv2Z5vVjbNFMYNK8FPhRwn7Eyw6VdL80SzriWaxUGuZ/meZmzeyj3/HlRaEKj62cipP22ZC3ztGfYD7Wuj3cb1WpnI8+bbMLgYOdKh7cz9xTuLdxjwvbg3sd9leP8xfetMO1Er4e/BSlRLrx/Umfq3gybaTM+UNFeoTgZz0qMl2bqHm5hxnyI4vcFG4/1rvP5pfZRDnWvVJdaPAbJL3zWCz9yh2IYzyFETsTPQeHvh91z7H7IvSm1L889tVI9s46ZMEi5qQ/QHcs3+I/2HA+9Gy0/niv5IM1xnmcR1uyYLcPnrvh3xdLES7Mrb73tNwM76nn+oz4mSvKBnfBubAs/5If7Y7sbuY3wQbl41DChw+btw/6lePnarX4f+/Gg4eW5d+ioD+FkH394LDXSlrx5IXQReoi3EV5HqfMQ6fCCyiMI1RJGjDiFWIWXmpWfx6MO8QUPrzzjNJY9wrYOjfFUa3T9vKi580imIGLCSJ72tPaod+lFwc393nMvDB2GV9ov9MxMeXBSfp4+MTsRhfA+JUzdREE7Rj/DE30+Z346zLVIn1i+9Sw9g3tOJMOqLV8YwjO1q2dv8lpBBPUi9TiGEXP90n+I9nyYMFttaWOcDu475e89tt+WRWxmkiTqlyXo+g8Me0442pL8y+NRbu4fdc1ZGDF9bHZomS0kmzC4sBUaCSHGfrTjL6hm377DD5Vnckt5FjAuFT/65JM1YHMYwpEKCwm/9vJlMTX4vdmTtUw9xIUPijxAZXkrkic3z0uXb/p6pOoZlmvhJfE4NZYmfCAixCFrJlBL36ylCYP0DQ/KPFDmLSusQyOEwdQDLLbQJyZOM7tmXvsmY7rwZdDCruJ6WMhVajynOG3WNmFhvIB9+9Iu1zbv7oOgCYPhCxt5YAvpQw8P9pu9Ng6WlYdnIt4scT523JbmOYJHzP5ta5rat+GLHdybDfUu7eMILx6pDxKWv10v9gJp+1PL8Lrk2oz/GPMTj+l4f/wCZ/lUqy825XmZs3to6v5XS/2q2ZVqG9tXpDw7p57leLdRPbY26lzqDGOp/m5UGY3Mxz5gVBLKbIZc7meTRRjE5lQ72f2aulD3VJpG7LMxG//N5dHDS1Au3uCP7dnoSJMqKyUMnj+yxf+ecD4iIefZbwH7qgmDiHZFxxg02xj/meiI1NAt3FMJr02NZxz+ftg9nOdQ+whs1wjPieZFmOeeanYVWZoAx7WZ9bGU4R44nvIEDz+6MLhJK44AACAASURBVOlU6iN7+Ewe/65k2Wp25a233cOxs97nP/sdJi/7QGdj4vL+EXsSZtWhkftt3C4fxndn0H2ELMI4EYZ4OW5kebXk1bZotQ8vXr95wCEgZOWRN6TTxqUz4SteDgyf8B6JiBTxsVQYcTUPRROP8rRlJQFkpH4nHX2W1QbstzDiPGHLlfLJ256V8ihyzDzKEONSdaT98CqzMPKUB6eJsNX6xLfT9Da3cv12H2bKElEyttfGHMwS2ca7jQiBZZzKmMtwGy9Hrl/aM64P20VDclN5FNm3ZEWn45rCKy9L1Cc/m+govMasnLw2l4X1CjM2W9iwee/CE20WTmZkYcTj7VVp9Z2My1KptJAxBltCGESI4YeW8NgNW9JhN6FwYw9HYcNbHqkHlLzpCI/4+Ms/8bZYyEZ4bp51e6mlPjzYMZ4hYRj2UFJJFCT/sJ6pMbZCG+yFHJvjSTtIFz4QpdoszKuZ62YnbZAl7mWVH9Yh69y4zeO8wjzsYTtOUy2POP1k3jahrZKglvK2qFRnBq4n/Cz8e+2OByAvdey38+1FMy7fyozTm702WcpIPnc9CWPh0cqxJWWTJy+DvCza/mYswxe7egSp0Da8fPGe495WaUxRzjHWszgP87XrsoidpI1f4PLmg015XubsWkzds5pdv7B9irZnfG4t2+PdRrXY2OhzqDO/Dan+bnRZ9eYXzo6b5U1NGX0bVzomU+KeMxmEQWzF5lT7MD4fdaUu8ceZVPra9s11e7vXOGYUppz4jw9A313Y7SdHSeWfEgYZesLyMWHQfnvYX00YTJWTZx+CH5O5fXQnRBa2wz+iJi5f+9R1dg+Oae/w98Pu4aHAFl4jdt3kuafmsTtOYwJcfL8P09m9P5Umz3iL5GXP7qk8wrJs3ezKW2/7zaAPrE0tL1vab06lNJbWhgTyXp+XrpXHHmTSmNgD1M5p1tJEFEQF856hLBu3zc+eO4HeMvc/sMARCkj4MuJCpXagLj7Mtm//mHHo4vOsfmGd4zTxtgmo4fiKJvhV86gr4p2YJYA0u35xfYuUF59by/ac+cu8RxleZXiXpfIwIdAmiPDec5EHZ94+wVOWCTBGTTKSmEQCsZDwVgRJE5LMtvFuIyu3nuX9M+d7T0JEOuyvJ69q586at8R19x3wQibiG96Zlc4xwR7PYD5eWdoiNlsIfdY1aROf0PesYxM8xd68lQR6s0vL0fy0jDAYfvnM+ppH54U/3OHDEcdw8b94x8uu2sMC4/Px458aBN8ecjjOei3QhHYyeYB96SVPwiqwtVK+vTsP+jHwSJ/3L+uBKnwgmkgvOGvXVJtXaguOhXVohDBYax7V7MxznLCsJZF4Fgpp4Tphssz8G+ebEuDC88L1RQu5MY+9kZvQFgtwYVkm0sXiXZjGZjNm9l97AUst43Ls5SzO28qM05u9oTCIByKCYKq8Svua9TJo7RK+2NV6D7G88LB46PFzfrIiPJyzZkO09Cztesl6AQrT2nVZxE7SxvebvPmMd5hsXrvCNonXi7RnfG4t2+PZRgyQn/c3pkg6+KgmYIdtYwJH/Lsepmnk+oL5C0d9wAjvmfH6vLl3PZ2xIRTJmOE2a8w98rGPEc0SBhvxe2L31vieO7q9736ESU38MTrt2N+s6sfn+smhEP/4u/3soNuwgjEB5/rfQGauRxTkvp41VmxKGLTfk3BoiiIeg9XtHltXhCGbXA0BkOcuizzh2L7DD5efCVPe3+Hvh93Dw2fK1LiD1Z55a6kH5+QR4OweG/8mcL4d497BepYdVk4qj9Q5lj5vve0ejh2Nev4Lhxwi31Sodcr2Ru8zoSX0FgzH28rj4dZom8hv2qyFfswxQjg7t+324c7VyjFBKI/NfmZhwjEXpMNDU2WRL55soWiVx1usLB71H3CMk5bK2/bxPotAkZpYwgSPZtXPbLBlkfLsnFqW8MZ4cHiUIcBlebmRN0LO1r79bs2mXodojEdk7F1WrU8ob/GyDV4QJC8Ewmp2myjcuW2Pn6HY0o9XG1l5k225prPXre8a9H2V13bGdgzHH8x7nqWzkGTuHYuWbSh7geKp2L50vZ+IZPP23W76HeExK4w4S6C3crQc+/zSMsJg+NBT6cWgUrpKx+LOr/SwYseYnAKBLj43z3Zoi71MIYixnjXOSpiv2WDn5llmPVDleSAKy27WutUpy85K5eapQ9jm9jAd5tmIPML8al03QayScGXHsl7U7GXH0lVahkJaaHOel0ErJxbvLJ9qMwGHdsV1sXaI87Yy4/Rmb1if8MU7LKvaeqsLgwuXrPWz9vJyyX2IDwvHHjybDDuzvgiXxnrqOgjTsW7XJcv4WNY2aePrOG8+vJRV8+imXPOQSdWh2fWL612kvPjcWrbHu41qsbHR59DP/M5V+v1vZJkmIlW7V3A8vl+E951Kgl/edPXUy+6jeeoR31OtXLu3Zh23dNZm1dJZ+iLLrjXLyhNMpcZsJC/GFfz5iyMfgn53cditWjL6ZdDsC39TzGuT0GQmUiEf+41J9W0Rm7PShkPeZM1MG44PHTOfEgbDD998OKDs8Jknr0CWZXPW/jwCnN37498E8nzimR/66zp1LCyzUh5hOlvPY5elZWn3cO4xnBses/WwPVO/O5bOlrPmdTgm7SNPBODU+ImWtllLBKtUuLB50zG2YD0v6EXsJvQV7yI86wgBZWzDDVsHR4lw1fLL65VnXklFwmwtrHDzjj0+TBdb8gp+5dDGrp1VPabwSMODzSZFCOvczPqF5dh63vIsfa1L2nHZ6q7M8eCy8n1gXoefxKJ9ycgwD6Qr90kFr1G8zzZ07Rzj/ZdVDvsRExmXjr4M041XG4Vlan2sIBW3CSLg6o09rnfXsXLINWNIIrjPXbhy1HXItYZn9JwFd8cNtYlOUgJ9XJa27/aHhMHEV0xmMeaHvpHC4JXrt9223mHHmIXkXe3Loj0kkfb0o8/6hxoebCr98UU6FcKQ54FoPC4Kq1O1B8SULXnqUO2hrhF5pGwruq8RL3Lhi021F8JQSAttzfMyaOWEL1qWx9rlHe4vXt/rPTg4fuHYVrdiMS9qo70Ts8qxdojztjLjl0/LJ6xP+OL96bMDNXsAWZ0atQxf7OA+b77dvXu8ZyDXCJ7GDGVAqFk1D+M4f2M9z8uNXZdF7CRtfB3nzYf7ax6v4S3bh7yAmBpKodn1q6c943Nr2R7vNqrFxkafI2Hw7oNZkba1+2i13wGOx/dUK8furVnHLZ0Jb9XSWfoiS7Mh9OxLnW9j0FKfeGzcVB4rOha7P39trwu9HIvMSpyyodI+7tWEk/LsVmlYHPKw8aEZg5CQW8vX7m/kYd6BHDMxjIgXtsdzVuJKwqPd++PfBGy8l4VBJh+kzvQTfwi2qWdw69dGLM27KRyLLO967CnXCHvIA++wbXeEwO39Bx0eRggwqbHeKpVpY+p1VxCE7HwTPsOZhe1Y1tI8xhCCLE1eD0UEB8aEqxa2jJckYZepWVlrqV+18qweqWWR8lLnT9Q+7EbsDseKa6YtlMXEPZXGzWtm+QjJg3vHjoOZuq4Js/9+lYjDZtiKgMv9I2VT3n3cI/AkbIZ9qTy5FhEF5xTwKE7lM9X2mTDYPtEVn6hQ4viBjHawhxx+6FmvpW1CkYrZhxcvG5km3WYaJu9KY5GEocRZAz7ntSt8yMz6Upo3r3rSWbumHh6r5ZunDmGbpwSRRuRRzc7JdNxeoiq95JlIF4t31NPGbmLw/d1bVmdeJzZIf1yOvdDGeVuZcXqzNxQGw1DiSiF9490vtQqDjbLTWE9dB3EZdl0WudeRNr6O8+Zjgl+1e5EN5j586PQYtppdv7iNipQXn1vL9ni3ETbyQvv8hcveo91edIsuGU9t/9EzY/orTxuMtzCYx6asNK0USpxlY5H9dm/lQw8zAKfPbW4osYmO8aRTsS3mAYgwiN3h8VDwM9GQMO/3Hut1Vx7ZUf5oZZNqVRMhw7zzrofPIZWGxSE/+wgdP2uGgl+YBzPgMslc147dvt7hWNShgJjX1jzpTIysVRi034W4jnHZVk78uxKns21LX8kuS8vS7uHYkfXbE/Zdtd/Opas63fsf/dQLgthMJBDjDTLDclhuo9cZ44tx0vK+jIfpvHfdA6OHRWi0ffXkZ6Jn7jDbaFy6amVnhxFXnwjEZkANPdtS5TGTal/G7LfNrl9sT5Hy4nMbsY3AN3/xGi8UIxj37j46hl0EMbxaEYOZTZuQYDz7aikfHQGRbePWIT/zNR6rIf+s0zeUtWrDDu/dWmtZtdg3lc8hHJj71niJvVO5reute6lUamfykQkXBqmIDT5c6Str+CAUh1+EeVQLVbOyUumaMfmIdRRfk5976Q3/MFFp9rKwni9derewx5CVxzLPA1GYvlnr9oCY98EvtCOsQ8qDiLThrH2ph7owj0Y8GIb2TcZ1exmMBbiwLibSxeIdaW482eu9BSsNvs9LGYJdylulEcIg3okfPt3v82fAesZuDO2fqPV6hcHZbUvdG1dvufOvXKmpPsz4zczfCD3V2sCuS5bV0tpx0sbXcd58GDOR2SmzZqikDO6T3PeyZoW3azl1nZuNtsxrl6VPLYuUlzq/6L7xbiPsQ9AjHK7WF1tsRpwg7N3GUytS78kkDGrykZ2ONijSv9XSmjD4V2/uc1tW3w0His+rND6g/abwe/POIz1J+8LfpMpC6IgHJ4J5kVmJQ3EJEY8hEeI62DYffU18D++/oddh6hnVzg8n9sh6LrK0tS7zCHB2j41/EygztBHvwSw77Jk8lUfqnDx2hefZPbwRwiBM4B1IXowRObjn6KhtJiYJy27kOl5NM2Yv8n/zF692hNYhrCBc+f1zFrmNW3d6QWTNpp5yWo4RSttIW+K8EM2wJQzni9NU2kY04HwErUrpaIPUuHSVzrEw4nB20iIedTaJQSVhEC9Gwh5XrO1Oilt4KhJiXG1MRAuTjsfdq1S/1LGJCpFF3MNjEg9Lwn0RhfAUS3nk0QczZy9ytCvnMIN0tTEK47rOXbjcbe3b59se5vmwgkgYe6yyzVh0lEU4OWXhUdbs6yK2dypur+vs86G+eOgWqf+IuLzKC7kIuoQLM/NwLPgiAvcMHXWMHwn3ecacLGLHVErbUsLgiYef8l/cEMxYT3VEOHZLShjEy4Tz+cF+7KmXk3ksWrrW8RWWNOHXWCuvvWONY5B/jme9mFrarGX4cBi/vNpLuz1U8BU4zoeb2qU7E6l8+Nkv3cau/jFp4nOytvM8EGWd28j9lR4eq5UTfkFnghkenONzwgfQuM1Jm6cdKvVbXN5k365XGLQXuUrCYDhuVCxA2ktcLDqaGBmnN3tDj0H64MzQRj9YPQPWP7pr0xguJqKf6hUGjcMUx42uj12X4YtptTJIG7/AFckHTxlmUR/aezd8LiyT+x33vSwB367lPO2D4MVvQpH6hbawXqS8+Nxat8ezjbAx1adFbae/8nrwxHnTl/wmpn7X47StsH3xVLf/IIHH9GBneibf5w7enRGX+2Ur2J2ywe6tCGrYnEpj92vS4AWeSlPPPoQ88v7bqwfdoR1rMvMP2xSv9bBMxiD8xYWRMQizPhSFQ2Dk8TIf2H3EffqTu+GiPBvyjBiWG67zUeetdz/xLCMabe0Z8e4L07BuHz9gPjW0gj0PczzrWfbZF0c+MqciX+Lyat3OI8DZvT/+TaBMPhLYEDpZH4PCZ/JUHinbTVTld4SP+ak04T67h9OeWb8r9rtLmkq/LccffMr3Gb8rT94RO0MPwivv367ISGhXret4OjEjKS/IoYcd4hQhfwhs4zW2IHVgXDhEFsYWrDY5R611tvNsspVawoiZ1MLyKeJRZ6HEYRiy5cMScYkZUglLjQUpjpvYl2dMRLOrSP1CW4qWF59bzzbjYyMIwiR1LppX26JVXjyF7WrefBzHyzDPbNcpOxYRwrvv1KjrJ5Wukfval63PHTYci1/xNuPvNdK2ZuVFGDIzFDMzebU+NRuYlAYxkb5FzGc2c8YvJTw4lQfXH+IzHqNdPXt9GyMSp65FK0PL9PA1LSUMru/sdR/c/sXIy8GNL8b8sPIwxg8uP9r8pV4gwoeQ1Dh+PIydfe7VsnjIg1UKjnC2Mb4M4g2RSscA0pu2Dow5Vu0BIxybJOshIgw7xhMj62GUOnX3DbszT7wwxg5szvNAlKpbo/dVenisVhZ1tBmnU0JpzEbqoS5PO1Trt2p2Tqbj9jIYC3BhHUyki8U70pw/sqX8YpwKJeYl7evzQz4NL3zh4O+cby+acd5WZmyX2RsLg8zc/JtX9/hy/uK1vY7ZK8M6hOvtC9rd84e3OJbh/kav32vCINfftJl3vQ1SIpJd3yyrtSf3UwZtT937zBuDMC1etlJ52bWcus7j9Pa7wmzw4X2cF3jy4f59+MTj/nfhjXduuVtf/MqPDbap6+59vUh5cfm1bo9nG2Fjqk+L2j6VhEHEQERB7m2pyTLWLOtwv7s4cl8izWQRBv/s0rDD9rDvmfmYOlKPSkJoeE7RdcRAREHK4HeD3484j7BN498NS2vCIR+KXjpKqPHdsLRpM+e5dx+9K0ASemznZS3tvmbPnXmEb4Q8S5817hxeZQiHpCPPleu2jrKl2rMsYhjehFnPwln1Kbq/XmGQ3w7uvdiZNfEeXsr2QT+vMBh+CD796HOj2i5VR7uHY0c9wiBh3Nbu/IaFvyl86DIRmTpT95QtjdhnY+zhQWNeOLww8/KNgFDkJbwR9thYfcwC2oj8KuXBuHvMVkobZKej7e+2f2p20iIedZUmMmCMRbz78HTL8j6z/sozZqCJkIheYf3IG89PvEMRmAiHxUPKh8ciyM66e88sUl5YRj3rCNEI0qs37kiKN3nytlmKwwliss6b37HaDQyfKjQBSZgXbcn1g5gb7p/IdR+yvvu494hNeVhOhG3M/Ou9OXOOgxgLmHj4cT/KWx8EPmZYJyQcHorWmfvgkpWdCl2enhb+qrVnSwmDGMvXN3tAIBSOH1p+0FmyzTHCnSo9DIWiHmFNeF7YCyCzfNr5fMUkZDfVSPzYv371I18OZZGWL7ikJy8e6gh94Ett6kW4msDEA0MoUKZmrrMXZMrnj4dHBp1eu3GHt4Ev0YSPUEeOZ70k53kgSrVBo/fZA3beB7+4/PALOv2x/+gjo9hgshh7YEu1RZ52qNZvsU2TeduEtliAC+tkIl3qJWzLmmWOsC9e5BD9zu7d5MenYowqvPh4weSYvezF4zk1ShjE3tMDG9y/vfNS+TdX9vswMrwVmZyEl0k8Cb9+Ych7Flaqb1j3etYnkzBoHjGP/+BC+UUG0Yx7Hd52L/3oHcfYcXjKLFg8MpZkSkSy6zt1P0y1JfnjsY04iIcg90Rehi9cuubL69l5IHlvJi+7llPXeaqsXftP+PGg7LeF+yX37puffesngiKfF3542R05+YRbs2nHmAHki5aXsqGWfePZRqk+LWrzVBIGbew67nGIUJ+fG/Cz3nLPQXDi/sf+v3tnRDycDMKg2Yvt1IG6MJMvdeMYdWW8PupelI1q6efNXeC+fmGnL4Ny+Nhzeuf68m/KE8Ob/OQpHKtkBx99vruw26fhN+HiyW7/G7Bx5VL3/hO95Xp88dygmzW7eji03R/tOayaxyD15Lo1LznOY/I5ol24j/D8xrOfiYLck8zrLG6jUDB778Ovy8/DPNNy7yJvxDY+IsfnNmq7XmEQO8wD3O67z5x/zbcDbfHs+dd9Hew5Nu/zIR+DLbKHtsSLj/a1P57lwjawezg21CoMhh+gsRfHgLCM8Lk+SwQN09e6zouveQuGIgxiEN6C/FUWzWp7YaxkL554iDSE3FZK14hjzHSMoEMIquXHTLPUeenqLd5jiNDCjpUj3oEm6tUaRmxlMH4gdVy6arP3RMIbqX3pei9iMOFKJQ85vP/yhBFTFvniDRaGTDI+G2P0ES5pnonUlWiqlBhZpDyrX71LhNbB4ZOubVH2mOPVymB2WdqJtq6W1sJTQw6qnRMex2NwYPiEQ2AM90/UOqKgD5UdPjnuHr9ZdTZPYIQ6BLusdI3cX2+/YgtjsXL9MMZlI22bCnmZMLioVSqLGIZ4F77A8UNuf3x9vfT2B3475TFIPcjjhVeuZOZBXjxUbe8fG8IbtgMPAZSVZYvZlHoRziMwhQ8ZfGVMhdVRF8YJMzHTykwtaZvQflvP80BkaZu5NOEg74NfbAtt+vb1z8oshG1gD2G84LM/JRjkaYc8/RbbNVm36xUGqfdjuzeVBTl7YQuXePAhGCIcst8GhOfcRgqD5HekZ225nNCGeJ2X3maPRTiZhEFeZh45e97Pwm7XlIlmeNDxEouXBPciYz0lItn1nbof2nnxEqGR+xvjylI25b7yxnW3en13uaz4HLbtWk5d56n09e4b7/JCe8erjVJ9GtqRZ30qCYO0B15tX70wWBazwnsNQtrrp7e5n784Eto6GYRBxtxjkg4TAcP6sJ7lyZeHjTxpli5eNMrLPC6fbWz7+Af9SY9CK4MxCu3DVCoPhr/InmRltGjCfa/IGINlG7YPjRIH7d4aLnmu4/4X3lvtfJbsJ6ol6xmU5x68E7mHh+c1cr0RwiD2HDj6yKgZfMN2QOB78LFz/jegyPNh6HUZ5sd6LP7ZPTx1zNqr0vNfXtEvfK5PiYdWVj1L8wYLw4Un0lsQ8QDRbTzCiGk3xDjEI/NMsvHFEMzwokMsC72TbHzAVBhxHg++sK8IVaTdKZtyN2/f4+bMX1bRQ65IGHFYVq3r412e2ckYkYTmrly/vab7kR9jcvdRt3ZTb64QUMKVKY8+gX+zI8+Scwh5xiuz6Ll58i+SBm/bjV07vaCPWDl34UrvEbtj8JBnq0hejU5rYe3hcAWNLiPODw9OPIJrmU2YvhwRWI9mhvXH5Wl79DNPqVRaxOQjLSMM0kGErB178Kz38ODBiYciwoLZx7FzL7/lHyCyhEHy4EeccN23rn1cfhghH7zueNE1z5dqQFg+CISEmNnDBw8v7GPQ4TDEzvKr9IBhaVgyvqB9OU6FPlvazu6dXjAl1NoeEnko/PHH3/gHS2axTNnB+XkeiKycZi5NOCjy4Bfb09a+wtfX2ow2YDyfru27/I8C4ih9lBIM8rRD3n6L7ZqM240QBqk3noNfnBt0eOrZSxgvb588M+BWLlnsX+Bs3Kdrj/GFfeQHvNHCILa0tS1wLx7ucr95dXdZsMQWPBt5mSRcrdGD5qf6vl5h0CYfwaNu6Z2v3qlyJmpfSkSy65tls+2yazl1nTej7PEurxF1KGpzvZOPIGK8+uaNKTH5SNg/eJ2dO7jZ/flre71oxf2G+92ertWOEFybfGkyCIN4U6/oWOxtpw7UhT/qRh3zeNiFbVPLOuG+R3rXecH195fv/qb89Zv7/T18oHNF+TekUv78Frz18Hb3l2/u9b9L410PbCPy5MTDP/CebXz04NnEP4fe/oV/nuO5rlIdOMYz6NC+E+6dH3/hPevIg7x4trXnnmp51HO8UcIgNvDBhw8/1hY8CxJyy/O4/X7kHTPQ6kQb8AzIs6A9n7NstDC4/8jD5TKywsPNpvC5PjVchqWrZRkKgKG3oIVxToS3IN56PvSve6gqz7XUud5zCCMOQ67Jbzw96kzIrWfMwCJtMN7lmW14OiK0IZju2HnEe2/6ceES4aBMKkEoLyIuY8ExaUt33wHHGIN5hTo8JRnXEnGQ0GMmFWFykXhcObYZtz8si8lKEODylmV1bMQS0Zp2wcNyG7M135mwJgyb5TjtwazN1A3RNGt8vUbYlJUHYvrg3tOOsSOz0jR6P/eybf0HPEeIhHj9wQrMxGUZR4iBiPzbBw/5exET3sRptT1aAMxqDxMGF2cl0P58Dal2UjuJATFgDNQrDJJPZ/egf6G0DwHhS0/edc7FG9DsatRy176T/iNL+GI7sOuw9/wjbLdR5WTlwwROhNblmXU5K48i+/ECuXrjc/eDF15ret2K2FUpbdE2QsTgpT2Pd3oWf3ywQWCsZFfWMURe8q30wS/rXO2v796b5yOR2ri+Nlb7VW6/PAKk2rByG05U+yCuLF/TNSr01bz5iiwRAxivr5H1uH/mfB9aTOg1no2WN4IDXlqVwn8tbb1LRAqEMsSeevPKcz4i0raBg+MW+hnbhIDFGG+Mf+hDYxOzyDIuIhNSMI4c3nsId3E+ebZhj3bFU5RZawm3Juw65M57lO487MfJw65ay8pjT1aaeXgB3vFy9WNC9u33NleagdvXbf5SPz4fghf1oF5e5B4nlpjxmY8NYXvWsl7LRClMMoSovx3xNNGv2GEcMQYiQiuzEU+E2JvV75Nxf6lUWozHoITBGgdpnIydLpvvPhyoLdQWzWAgFAZPP/ps5rhHzShbeYrpycAAnlAdKzaUrw0m2JIwODHsShicmHafDNfpeNjIi/qlyzf99Y+H3byF2ROIjYc9KkPXgxgQA2JADExFBiQMShCs6SvNVLxYVGf9SORlIBQGQ++qOLwpb35KJ/buNQbCYRvCa0Qeg+PPuoTB8W/ze+16rlQfhrlZtHRt5liIDPtDWDH3Af1GisVKLOmY+BADYkAMNI8BCYMSBiUMigEx0GAGJAw270dLDwT3RttKGGydfpQw2Dp9ca/e3xgqgDGyGY5ha89u7ynMrMSPPvVSeZxtZnJmRud7tQ1UL11nYkAMiAEx0MoMSBhssCDQyp0t23QzEgNiQAyIATEgBkIGJAyKh5CHZqzbGKKhd3C4fuvz71zPzgMSBfVOIgbEgBgQA2JgghiQMDhBDd+MBy/lqYd7MSAGxIAYEANioAgDEgbFSxFeakm7vX+fe+lH77gff/xNeXZfP0Pzp9+6Z198w89MXEu+OkfsigExIAbEgBhoDAMSBiUMSpUXA2JADIgBMSAGxIAYEANiQAyIATEgDmNUigAAIABJREFUBsSAGJiCDJgw2CGltTFKq9pR7SgGxIAYEANiQAyIATEgBsSAGBADYkAMiAExMBkYKJVKHSX+TQZjZaMuKjEgBsSAGBADYkAMiAExIAbEgBgQA2JADIgBMdAYBiQMTkE3UV08jbl41I5qRzEgBsSAGBADYkAMiAExIAbEgBgQA2JgMjMgYVDCoMYQEANiQAyIATEgBsSAGBADYkAMiAExIAbEgBiYggxIGJyCnT6ZlWzZri8xYkAMiAExIAbEgBgQA2JADIgBMSAGxIAYaAwDEgYlDOqLgBgQA2JADIgBMSAGxIAYEANiQAyIATEgBsTAFGRAwuAU7HSp6o1R1VulHQ8ef9R98c2fjfljf6vYKDvuLeYmW3/2Dh5wH3/56zHXyNlzP9I1ot9AMSAGxIAYEANiQAyIATEgBqY0A5NOGGxrX+muvn/bv+CxZLsVX1JDO3/05o2WtLEV262oTdNmtLnvT5s7pdtXwqBEt6LXzVRLL2FQ18hUY171FfNiQAyIATEgBsSAGBADeRkwYXBJ3hMmOl0ouEkYnLqgr5jX4W727Hbf7Trk2mYtlDD4zZ+5T776tdt3+GG3Yk2X/5vdtrRiu0yftdC9+uaNMV5Usffh5z/7nXv/o5+67f37kvl1LN/grn/0tTv/ypXk8fCecd+MNvfI2fPe1rgc2yavjhUbynntO/yQ++jz79y23uHyvl37T7hbX/7K7dp3srwvLCe1vmDxavf8hcv+PMr69Ce/ca+8cd2tXt9dMY8i9cOeW59/5wZ2Ha6YZ8o+20d57334tbfV9o3Xsmv7LvfWu5+4z77+refig9u/cI89/ZKbU4Ul6o1HXt7+uPDatarcGQ9ZS5jYf/RMrnaeOWeRW7Z6s78utvXvddSLfOUxOHV/Q8brmlI5YkwMiAExIAbEgBgQA2Kg1RkolUpLSvxrdUPNPgmDuqhg4cvBfe6/nXjU/Xb4iITBO6HECDN4Rtm10qjl4mXr3dUbX7h3b37p2jvWjMkfIfKDT791eTxjzXPr6XMXHSJhHhvxiIzrZl6SecOl127c4cXNK+/fdhu7+n3ZCHAXLl3zomPPzux2K1K/onal6l+kvNT5te47cuoJL9g+e/5138/0T3ffsBcpL1/7NNn3VlYj6m155VkuXdXp7crDXJyfta+EQf2WxGxoW0yIATEgBsSAGBADYkAMTEUGJAw2KZY+FDBreXmdijAWqbOEwbs3bBNlYvGsSHtWSwvDiH+IKnFaE1rycG62sozzydombVy3Ivng7fbmu7ccomAsbOJJ9srr171oiNiUsqHZ9YvLLFJefG6t2107drsPb//SnX3u1TGCLaLqjU9+5l589eqYY1Zekf6wc+pZrly3VcJgk3676ukXnXv3vqy2UFuIATEgBsSAGBADYkAMTBYGJAw26eVKwmBzbwISBu+2r4kysXjWyJvQZBYGTzz8lPeEG9p7PCn84UH44We/zAwrLSLUWV+wrLX9i5RXaxnheTNmt7tLl2+6aze/cnhRhsds/dSZZ9zHX/5Jpkdq0XoTlv7+x9/UFU5MKPnhE48n7TW7U0trX3kM3r2HpNpJ+9Q+YkAMiAExIAbEgBgQA2JgajAgYVDCYOEX61a4OUgYvHuDMlFGwuDdNjFG8Ra8/N4n/i9rnDxCZl+69K4XqhiHzs61pQlJzfKItHJsWaQ8O6ee5dae3X7cxceeenlM3S1f2gUhj3ZKhYAbg3kFUdoSL8SV68Z6oFqZzVpa+0oYHHu9NKvNla/aWgyIATEgBsSAGBADYkAMtC4DLSkMTpu5wB178KwP77v90986Jj/gJZJ9hALmmZWYl9f+XYfcW9c+9mGIvASSD+GQhMsxEUEeMC2fS29/4G598auyhwsiDPsYgyv1opzHY3Bgz9HyRAhXrt92jOWWson8mRSAiSIoN6zLsy++UbUu9iJM/W2w/s7unT4/JmAgP9qZCSZOPvS0w4MoZUcj9m1tX+G+GNjn/uPhh/wYgYwT+F+OnXH/Zv9xd3XbTrcmY5IDEwJJn+eP9Jn2Tpvrdi1d6ycu+U9HRuz4f44/4v7u4Gn3WlefW1Ch/g+u3uzL//3+E27J3MVuy8IVPh/qgF3//vBpd33Hrop5ZNpVo0htokw9wiATlcBJ39Ahd/LMM+7li+/4MQXJ8/qHX/tr7satn7klKzaOaVfjq1nCGfWL62Z1riZEbdk+5CcDqTbJxKETj/kJN4YPnR73+sU8FGnP+Nxats88cX5M+8b5cA/i/pPFQN7+sHxhZaImj7L2lTDYug8mxomW6iMxIAbEgBgQA2JADIgBMdB8BlpOGGTML2asRMTixS38Y99zL7/pJ0Jgf9aLJXm88MqVZB6W383Pvs2cZdXAa2tf4V+GU7ZYPqHYZuexrCYMIsAQCkc+lUTBPHVhFtQ8kydQFi/wTDJggqDVw5ZZbRrWrdb1H2zY5kXASsJe1mQijRIGZ8yY727s2OUQArPs+HcHT7m+jrRwbMLg3x065R5eu9n973eExTivvzlw0q2fv2yMyFRr21U6z0SZWDyrdA7HmG3W+h0euCYQARlz75GzL/oZZpkdeNX6bV5Qf/3Kh0nR2ISWVhQGYf2zr//UpQS/sH1MQHz6+Ytj+qzZ9QvtYL1IefG5RbcR/C5evpkp+IX5ISAy83XvzoNj2sgYZBmek7Uuj8Hm/7hntb32q+3FgBgQA2JADIgBMSAGxIAYCBloOWHwyWd+WBb0GPOKccF4UWbJNkIc3m0IGlki1pknz5fz+PEnP/dCGHls2jrgRUc7n9A4RI+wQWydsMPXr35UFk7e+/Brd/T0kz49eeHtd/GtG96W1MtwJWEwFAWZ7XX5mi1JG/DcQySlrtT77euflduDCQF4UWfCAI7jUck+sz9cmtBAOiYQYDw1RMlHn3rJn2P18RM0XL/tRc3w/Easb1u0yv2Hww+OeNUdetCd79zhhbMV8zrc5vYV7qXOHve3B09lzjLcPqfdkdb+vhk66PP6i73HXOfC5eX9dpz0KbvPb9pRFgUp75G1W/y52PBJ33D52O8PnHSrE96LJgwiLOIl+H8cecid27jdp43z+M3uw+MyY7KJMkWFwVT7pPYxvhzXzEOPP+89cOEo9deKwiCeggjnCH+putk+PCHxhkvVwa6f1DE735bWF6l7gqWptixSXrW8qh23+9Rb737i8BqtlB5xFZE1Vbei9eZ+/sHtXyQ5SrGVte/6R187xOtKdsfHrH3Js5onaXyutvUAJQbEgBgQA2JADIgBMSAGxMC9xkBLCYPrO3vLL4sIZvEMomwzs6i9JKaEQRsLizQpsQwPGUKJzQuQUNxUp4biIh5UWeOTEa6M0BfnYS/c2BEKCnj2IVSwv5IoSH7DBx/04Y3YmpotlDTrOnsc4if5ZdUlfBHmxf7dm18mxUjaZlPXQFWBIK5rnm2EQLzq/q+jD7v9y9Mh09NmtDlCjWfPnD+mPeMyzIMwy8MwTs/2snkdDsEPO5IefdPm+lBi8ya8sm1wjB0mDJLHfzr6kA9JHlXWtLnuja0DvgzyeXJ995g8RqWvMXw4zMNEmWYIgzYjLaI0TIfl2rrxFXJux+Kl2ZoSl+K0tk3auG558+HazZpN2fJnadcr95d5C5ePqmej62ciJNdspb887RnWoZZ17pfcP/KU1Tt4wPfDE8/8cFT7UG7e/qjFxkafY/1J20sY1ENdo/lSfmJKDIgBMSAGxIAYEANiYLIx0FLCIGOb8bKGEMZMoqnG3Hf4Ie+1QrqUMMhYYSb6ZQ2mv2jpWvfeB1/5shDJUgIk+ykDr8LUhAQp28J9JjSQh710h6Ig5Wd5K5KPzRSaVc+wrHMvv+VtzRr/K3wR/vQnv/Zeh+H547H+2tZ+L5YRgotXX71l1iIMPrRmc9kj8MLmnqQN7bMXub/ce8zbijfiwmi8wVAYvNU77L4/be6YfFa3LfHjFSIefrPzgJsxo21MmnrrH55vokwsnoVpalk3IR7v0pT4bXkaX8a57U8tzVa4Tv0xJijeufGxuG6WD8tUObYPm4oIg6l7Si31q2aX2ZdaFikvdX6RfUXKMmEwJabl7Y8itjUrrdUZxlJ1aVa5ylcPiGJADIgBMSAGxIAYEANiQAy0IgMtJQwy4QEva4THbtjSl3zh9+Od3QlBS73EWx7VwgcrpdvWv9d9/OWfeFsQ3WrpuFgY3N6/z4/hRv2qiYKUF9YzNe5ZaJO9lGMztofHWA9fhFNtFqdvxrZ5DP7XY4+4J9ZtHWNj0TJrEQY/7N3jBb//ePhB170o7f2GHZXShcIgYcgpuxECEQQRBm2SklS6Ru272/+/dog3jciX8Ha856qNX0lZxlcRYbCIcEZaCYPN+QEt0ncSBpvTB424XpWH+kYMiAExIAbEgBgQA2JADIiBWhloGWEQDzkmNzDhDK++VKVCwS0WuWwgffKo5iXE+HykS01MYEILx4sIGKG9oZ1M6GDhvuTJOH/YGqaP1xngn4H+SZ/3LxZPLE97+ScfBFHbP57LcIxBQmz/ZPchh8i2bG5H0uuumm2FhcFpc91Xg/tzeS2GIuaRlaNn4TVhkDDinR1rMtvyzTvhxNVEyGr1zHPceM3q/zx5WBpC5h96/JwfgxKvWULV7VjW0vhqRWGwFUOJs9rR9hdpTzun1uV4hhLPX7yqPHFU3nta3nQMy0D+edrB2pe85TGoh6c8zCiNOBEDYkAMiAExIAbEgBi4lxloGWEwFNJiwS/sgErpKh0L82DdxBReDmPxz45lzcAZ55XaDm2xl1tESNY/+/q3fiKT1Hm2z2ywc/Mss4ShVnkRPrmq00/WgSdd+IdQSNjuqdWbHeMMWhtUWhYVBttmLfQTm1ButXEJTfwjLeuhHXasmjBoodPV0oV517purGT1f7V8Fy5Z62ftZaIbmEfEPvbgWTdt5oJRdc/Kx/hqRWEQ4aea9zD1snH/UnVodv3idi1SXnxu0W27T4335CNF7Wxkemtf7qkSBvWA10i2lJd4EgNiQAyIATEgBsSAGJiMDEgYTAiDR0494QW8RgqDV67fdtt6h/2YhbyQpiZGCQEysYe0px991odr8kJb6Q/vn5lzFo0Rc1rpRXjerIXusXVd3nvv3x8+PUYgZGbgGTMaP/mIhMGxN+ju3j3eMxBBEa9WwuY7uwererOGnLJufKVEtTitcc0yPpa1TdpY9MybD9dyyis4LotZixEQU2H7za5fbEuR8uJzi26bl3XW+KRhfnhZZ90T8/ZHmN9ErVv7Shgce0+YqD5RueoLMSAGxIAYEANiQAyIATEwcQy0jDA4UaHEn/7kN25o+PgokcJecnlxZL0WQM0ThzwIc1u8bGQmXptpmP2vvnkjKeRRXhhKzKQstdhg57TyizCTe5zbuL3sSfhfjp1xB1dsqFrfoh6DTBJSNJT4Px972O2LZlA2j8H/88jDbueSdLg77T5ZQ4mNmSJL46sVhUET/Kp5hjFpEZ68w4dOj2Gv2fWL27pIefG5tWwj+MXCa5wPAiL3qywB0e6Zee+XjKHKfdEmiuJ+WOSP8zi/0gROcR1s29qX8qpxYedoOXEPKWp7tb0YEANiQAyIATEgBsSAGGguAy0jDNLRNiHIvTj5iIHMC/ZzL73hX4J5uT3z5PkxQgRpw8lHXrr0bmEvLiuP5WR4Ed61dK0j7JbwXcJwQ/tT64WFwSqTioRlTLXJR2a3LXVvXL3lzr9ypWq7h+1k6x3LN7hrN79yz1+4XPX8ogISZXBOLFzlzYcxEy+/94n/Y91sDpdck1xjWTOQ2/XTLOEztIX1IuXF59ayvbVnt/cczZrFnTzxRqZ9su5FefvD7GPsxw8/+6Xb2FX9WrdzwuXmbUP+fPIJ9+dZt/aVMNjch4s8faE06gMxIAbEgBgQA2JADIgBMTDxDLSUMHji4ae8BwmCGespQPYdfsiHBvJSlxqLEM8f80LJetFlYhNmBiYPlvFEJ+0daxwTL3A8SyxI2RbuCz0GY0HBhBTyv/Xlr9yOgX1j6ooH5aXLN70N9bxAY9NkeBFeMa/D/d2hU7mFwdv9e33aIrP+PrRms2M8Q8THC5vTk2q0z17k/nLvMZ+GJdthv5rHIHnc6h1OTpyyum2J+7uDI2HSzE7MLMVhHo1eN1EmFs/ylmOsxpzmPb9IOrOVZd7zSBvXrUg+hBMzY/fQ3tGewVY+4hTXWJb3mF0/edpn/9Ez/v5TpH5mhy2LlGfn1LPkXoPAhrjLvSmV16kzz/g2zJr1ukh/kD9tmbp/p8pO7auHWWtf7r9ZfZ4qU/sm/oFFfaA+EANiQAyIATEgBsSAGBADjWegpYTB9Z297oPbv/BiGGFiCHRhp7N95f3b/jgvdakXS/Ns4XhqHD+8g84+92pZPHz2xTdGlWHl4clnAiMvzVneRszaumnrwJg87MUVO1KCQv+uQ17s4Dh1iuuKHWHYMTM2p9KQjjp19w27M0+8MMYOjrfCi/CxVZvc4sT4h9beR1ducoQRI7gxK7Dtz1rWMrnHsnkd7vcHTvoy/ubASbd+/rLR5Uyb617r6iuLh1e2DY4+Pn2en4wEG/nDwxFPx1E2Tpvr3rgzIzEi5JPru0cfn974i9hEmVg8G2VXhXKN1RSnefPIm85srSScwXM48Qlp47rlycds4tp9891byeuMMTm5vt//6Kdu6arOZF/Z9ZOnfewexszj4T0Dr0zy4V5x+MTj/h70xju33K0vfuXwkN7UdfceUqQ8q2O9y64du70d3Btp/zC/tRt3+HtppdnUi/QHeUsYbPx9IOwzrat9xYAYEANiQAyIATEgBsSAGMjLQEsJgxj95DM/LAtyeLDg5cOLMku2Eetu//S3I+Lh+7cdokZc2VDUY4ZVPIbspZyZV+18vAGzxqjipf71qx+VRUjS4sVIevLqGzrkQ58ZozAlcpjYkiUMxgLl0+cujnkhN9GCPPj74NNvHeOB8aKODYQAMlkCdcwqh7YhLeeSZqI8ZAj9RSj7ze4j7pmN29zm9hUOL0GWV7ftdP/56MNebPtfD512GxZEgl1C1DqycqP7r8dGvP/+at9xt3/5ep8fefLXPqd9DBe0xflNO8rC398ePOUeWbulbAcTn5hHIQLi6kToqXkMku7/PnbGj43IGImkpS5hHr/Zfdgx6UnMZ6O3TZSJxbO85RireYSvvHlmpRvYfcR9+pNfu8d/cKHMO6IZ1xXedi/96B330effeY/dBYtX+7ajfnHdrM6pay9VNvnjHYwIj4cg1x8fES5cuubL69l5ILOf7PrJ2z679p/wQqN9WOC64z5x87NvvcBGPi/88LI7cvIJt2bTjjHjjBYtL1XfWvYdOPqI92B+9vzr/iME4uz2/n3uvQ+/dpevfZr5YYKyivaHhEE9pNTCqM4RN2JADIgBMSAGxIAYEANioPEMtJwwiBiGeBe+VPNibX9491x6+wO/nfIYBBLyeOGVK5l5kBcv6bz0VoIKDz3KyrLFbEqJEya2kCZLUAg9IBFLUqGO1IWx20zMtDJTS9omVR8TGjhnIoVB87TLWv6Hww+6wys3JusQ14uZiz+9E06cyg8hMj6Hbc67sWNXWQBMnfvvDp5yfR0jolSchwmDeAu+v2OoLGjG+SQ9EhMCZ5x/LdsmysTiWd68jNUsTvPmkycdgtwjZ0dmtzWGTTTDgw6PNbzX4N7yo35x3azOqWvPzouXCI1cS3joUTblvvLGdbe6ilenXT/j0T7YPN7lhe3UtX2Xe+vax75taCM8uB97+qVR3o9helsv2h8SBhv/Y2598f+3dzevcZRxHMCfQy+ehYqiHhpJQrNUmmyaNg0eCp4MaETFJgQxiFHBFzwKguLb0UMPXooeRA+iCF4E8a9QxLun/gsFYeW35glraNadZGazM8/nkGya7Dwzs7/PbJrv8zIevbYMMMAAAwwwwAADDDBQxcDMBYNx8DFS5Y133huOuolALIK5mBYc34ufffjZrbHBYLQRAURM140/ciNUiD9yo50YORfhQx6N9H8vVm4nAsKY9pfDjGgzvrf90uv/mfaY28thSzx/XKAQ6wvGOoPxvHtNfc7tbW7tDAPT+EM9B5VxF9WvvvlpGHbE3VdHp1/m7eIxBw2xj7MKBuPuwxGqfX9zb7iWYB6ZF48xci9GDY6bajx6Pvnry5fWBp9uPj+IdQZzezmgOy4YHG67tDKcAvzz7quDP1/794YnsX2sCxhTidcu33u0YWw7GgzubDw52Fq/MYh28jTo3/bfHtx+bndsG/n463rMoczR8GzS9vPNR2JE3RM3njoM5CbdvunnxfkdPbd8zvHY9P7z9TPuOq7zGKa9vzqOvWo9ohPjNGunxhIOMVL6uM6QceeUX9+zfD8cd3x+5j9xDDDAAAMMMMAAAwwwME0DMxkMTvMFsC8XXBUDR4PBKts29dwcyhwNz6rsb3Nrezh9N4fOEZpU/YhtYzRglf1O8tzdvTeHgX6E4/n5N3f3hyP/Ytpu/l5Tj3FDjphOO8ldl+s4hhhJ/MWX3w3e/+jzxs+tjuONNqJG0cExaT1ircXbX/9Y2dioybhB1HFLQYw7L8Gg9/xxPvyMDwYYYIABBhhggIHSDAgGG5reWRqkUs53loPBb3/4ZbC3/+5whGiEHzESsJS6OE+/vMcZiKnpsaZkXBfPvvjy4U2uzmoE9bhj9TOWGWCAAQYYYIABBhhgYJoGBIOCQeFRBQOzHAyOjqaKr6cxzXaab1b25ZfjSQ28sP3K4ZISo9eJYJCpk5qyHTsMMMAAAwwwwAADXTEgGKwQCnWl6M7j5G9ggsGTv3bcee3OyoBgkL2zsme/7DHAAAMMMMAAAwzMugHBoGDQiMEKBmYxGJz1NxnH5xchAwwwwAADDDDAAAMMMMAAA7NpQDBYIRSCeDYRT7MugkEGpunNvnhjgAEGGGCAAQYYYIABBhho0oBgUDBoxCADDDDAAAMMMMAAAwwwwAADDDDAQIEGBIMFFr3JpFnbejIYYIABBhhggAEGGGCAAQYYYICBdhgQDAoG9QgwwAADDDDAAAMMMMAAAwwwwAADDBRoQDBYYNGl9u1I7dVJnRhggAEGGGCAAQYYYIABBhhgoEkDgkHBoB4BBhhggAEGGGCAAQYYYIABBhhggIECDQgGCyx6k0mztvVkMMAAAwwwwAADDDDAAAMMMMAAA+0wIBgUDOoRYIABBhhggAEGGGCAAQYYYIABBhgo0EAOBjckue1IctVJnRhggAEGGGCAAQYYYIABBhhggAEG6jCQUtpI8amOxrQBJQMMMMAAAwwwwAADDDDAAAMMMMAAA+0wIBgscJioi7MdF6c6qRMDDDDAAAMMMMAAAwwwwAADDDRpQDAoGLSGAAMMMMAAAwwwwAADDDDAAAMMMMBAgQYEgwUWvcmkWdt6MhhggAEGGGCAAQYYYIABBhhggIF2GBAMCgb1CDDAAAMMMMAAAwwwwAADDDDAAAMMFGhAMFhg0aX27Ujt1UmdGGCAAQYYYIABBhhggAEGGGCgSQOCQcGgHgEGGGCAAQYYYIABBhhggAEGGGCAgQIN5GDwepPpo7al2wwwwAADDDDAAAMMMMAAAwwwwAADDMyWgZTS9RSfFGa2CqMe6sEAAwwwwAADDDDAAAMMMMAAAwww0KQBwWCBw0SbBKVtb1gMMMAAAwwwwAADDDDAAAMMMMBAOwwIBgWD1hBggAEGGGCAAQYYYIABBhhggAEGGCjQgGCwwKJL7duR2quTOjHAAAMMMMAAAwwwwAADDDDAQJMGBIOCQT0CDDDAAAMMMMAAAwwwwAADDDDAAAMFGhAMFlj0JpNmbevJYIABBhhggAEGGGCAAQYYYIABBtphIAeD6wrWjoKpkzoxwAADDDDAAAMMMMAAAwwwwAADDNRhIKW0nuJTHY1pA0oGGGCAAQYYYIABBhhggAEGGGCAAQbaYSAHg9cUrB0FUyd1YoABBhhggAEGGGCAAQYYYIABBhiow0BK6VqMGBQMWmvQIqMMMMAAAwwwwAADDDDAAAMMMMAAAwUZEAwWVOw6kmRt6JFggAEGGGCAAQYYYIABBhhggAEGumFAMCgY1BPAAAMMMMAAAwwwwAADDDDAAAMMMFCgAcFggUWX6ncj1VdHdWSAAQYYYIABBhhggAEGGGCAgdMYyMHg1dM0YlsIGWCAAQYYYIABBhhggAEGGGCAAQYYaJeBlNLVuPmIYNDIQUOGGWCAAQYYYIABBhhggAEGGGCAAQYKMiAYLKjYUvt2pfbqpV4MMMAAAwwwwAADDDDAAAMMMNCkAcGgYFBPAAMMMMAAAwwwwAADDDDAAAMMMMBAgQYEgwUWvcmkWdt6MhhggAEGGGCAAQYYYIABBhhggIF2GMjB4JqCtaNg6qRODDDAAAMMMMAAAwwwwAADDDDAAAN1GEgprcXNRwSDRg4aMswAAwwwwAADDDDAAAMMMMAAAwwwUJABwWBBxa4jSdaGHgkGGGCAAQYYYIABBhhggAEGGGCgGwYEg4JBPQEMMMAAAwwwwAADDDDAAAMMMMAAAwUayMHgFUlvN5JedVRHBhhggAEGGGCAAQYYYIABBhhggIFJDKSUrsQag4LBAlPhSYB4jjcSBhhggAEGGGCAAQYYYIABBhhgoJsGBIMCQUOFGWCAAQYYYIABBhhggAEGGGCAAQYKNCAYLLDoUv5upvzqqq4MMMAAAwwwwAADDDDAAAMMMFDFQA4GVxd7/TtVNvRc0BhggAEGGGCAAQYYYIABBhhggAEGGGitgTsppdVYY3B1/uLyrwrZ2kIa7mvkJwMMMMAAAwwwwAADDDDAAAMMMMDAxAYiCzwMBh9bfPyWYFAwyAADDDDAAAMMMMAAAwwwwAADDDDAQPcNRBaYg8H+o3MX31L07hddjdWYAQYYYIABBhhggAEGGGCAAQYYYCCywJRSP6YXVRnZAAABCklEQVQS98+du299obfyOxhgMMAAAwwwwAADDDDAAAMMMMAAAwww0GEDSyt/RBaYg8GV+OL8+UeeWVxauavwHS68ufYTz7V3HbgOGGCAAQYYYIABBhhggAEGGGCgcwaWVu7e/8BDTx+EgpEJpvgUH6sX5nsfdO6EhWHCMAYYYIABBhhggAEGGGCAAQYYYIABBgaR/R2sLZjzwMNgMOYVr84t9D5e6PX/FhBKxRlggAEGGGCAAQYYYIABBhhggAEGGGi/gcj65uYvfXIQCkYGeBgMLh/8I745DAcffPjCzkKv/5fCt7/waqiGDDDAAAMMMMAAAwwwwAADDDDAQLkGIuOLrG8kFMzB4PI/EWnlw90RSfQAAAAASUVORK5CYII=;" vertex="1" parent="1">
          <mxGeometry x="114.66" y="384" width="420.17" height="66" as="geometry" />
        </mxCell>
        <mxCell id="po31jbrVup9QedESrwFg-13" value="Docker 전체 흐름 (nginx 설치 및 실행)" style="rounded=0;whiteSpace=wrap;html=1;" vertex="1" parent="1">
          <mxGeometry x="62.5" y="323" width="250" height="30" as="geometry" />
        </mxCell>
        <mxCell id="po31jbrVup9QedESrwFg-16" value="Docker (이미지, 컨테이너)" style="rounded=0;whiteSpace=wrap;html=1;" vertex="1" parent="1">
          <mxGeometry x="62.5" y="85" width="190.5" height="30" as="geometry" />
        </mxCell>
      </root>
    </mxGraphModel>
  </diagram>
</mxfile>
